<mxfile host="app.diagrams.net" agent="Mozilla/5.0 (Windows NT 10.0; Win64; x64) AppleWebKit/537.36 (KHTML, like Gecko) Chrome/134.0.0.0 Safari/537.36" version="26.0.16" pages="5">
  <diagram id="-BD3qXm48tQdW73ARyWg" name="Entity Relationship Diagram">
    <mxGraphModel dx="1358" dy="586" grid="1" gridSize="10" guides="1" tooltips="1" connect="1" arrows="1" fold="1" page="1" pageScale="1" pageWidth="850" pageHeight="1100" math="0" shadow="0">
      <root>
        <mxCell id="0" />
        <mxCell id="1" parent="0" />
        <mxCell id="taNemY95b9fF1orjfdvU-35" value="BankAccount" style="shape=table;startSize=30;container=1;collapsible=1;childLayout=tableLayout;fixedRows=1;rowLines=0;fontStyle=1;align=center;resizeLast=1;html=1;" vertex="1" parent="1">
          <mxGeometry x="360" y="410" width="180" height="160" as="geometry">
            <mxRectangle x="120" y="400" width="110" height="30" as="alternateBounds" />
          </mxGeometry>
        </mxCell>
        <mxCell id="taNemY95b9fF1orjfdvU-36" value="" style="shape=tableRow;horizontal=0;startSize=0;swimlaneHead=0;swimlaneBody=0;fillColor=none;collapsible=0;dropTarget=0;points=[[0,0.5],[1,0.5]];portConstraint=eastwest;top=0;left=0;right=0;bottom=1;" vertex="1" parent="taNemY95b9fF1orjfdvU-35">
          <mxGeometry y="30" width="180" height="30" as="geometry" />
        </mxCell>
        <mxCell id="taNemY95b9fF1orjfdvU-37" value="PK" style="shape=partialRectangle;connectable=0;fillColor=none;top=0;left=0;bottom=0;right=0;fontStyle=1;overflow=hidden;whiteSpace=wrap;html=1;" vertex="1" parent="taNemY95b9fF1orjfdvU-36">
          <mxGeometry width="30" height="30" as="geometry">
            <mxRectangle width="30" height="30" as="alternateBounds" />
          </mxGeometry>
        </mxCell>
        <mxCell id="taNemY95b9fF1orjfdvU-38" value="BankAccountID" style="shape=partialRectangle;connectable=0;fillColor=none;top=0;left=0;bottom=0;right=0;align=left;spacingLeft=6;fontStyle=5;overflow=hidden;whiteSpace=wrap;html=1;" vertex="1" parent="taNemY95b9fF1orjfdvU-36">
          <mxGeometry x="30" width="150" height="30" as="geometry">
            <mxRectangle width="150" height="30" as="alternateBounds" />
          </mxGeometry>
        </mxCell>
        <mxCell id="taNemY95b9fF1orjfdvU-39" value="" style="shape=tableRow;horizontal=0;startSize=0;swimlaneHead=0;swimlaneBody=0;fillColor=none;collapsible=0;dropTarget=0;points=[[0,0.5],[1,0.5]];portConstraint=eastwest;top=0;left=0;right=0;bottom=0;" vertex="1" parent="taNemY95b9fF1orjfdvU-35">
          <mxGeometry y="60" width="180" height="100" as="geometry" />
        </mxCell>
        <mxCell id="taNemY95b9fF1orjfdvU-40" value="" style="shape=partialRectangle;connectable=0;fillColor=none;top=0;left=0;bottom=0;right=0;editable=1;overflow=hidden;whiteSpace=wrap;html=1;" vertex="1" parent="taNemY95b9fF1orjfdvU-39">
          <mxGeometry width="30" height="100" as="geometry">
            <mxRectangle width="30" height="100" as="alternateBounds" />
          </mxGeometry>
        </mxCell>
        <mxCell id="taNemY95b9fF1orjfdvU-41" value="&lt;div&gt;&lt;span style=&quot;font-size: 14px;&quot;&gt;title&lt;/span&gt;&lt;/div&gt;&lt;div&gt;&lt;span style=&quot;font-size: 14px;&quot;&gt;banknumber&lt;/span&gt;&lt;/div&gt;&lt;div&gt;&lt;span style=&quot;font-size: 14px;&quot;&gt;total&lt;/span&gt;&lt;/div&gt;&lt;div&gt;&lt;span style=&quot;font-size: 14px;&quot;&gt;status&lt;/span&gt;&lt;/div&gt;" style="shape=partialRectangle;connectable=0;fillColor=none;top=0;left=0;bottom=0;right=0;align=left;spacingLeft=6;overflow=hidden;whiteSpace=wrap;html=1;" vertex="1" parent="taNemY95b9fF1orjfdvU-39">
          <mxGeometry x="30" width="150" height="100" as="geometry">
            <mxRectangle width="150" height="100" as="alternateBounds" />
          </mxGeometry>
        </mxCell>
        <mxCell id="taNemY95b9fF1orjfdvU-48" value="&lt;h1 style=&quot;margin-top: 0px;&quot;&gt;Schema&lt;/h1&gt;&lt;p&gt;&lt;br&gt;&lt;/p&gt;" style="text;html=1;whiteSpace=wrap;overflow=hidden;rounded=0;align=center;" vertex="1" parent="1">
          <mxGeometry x="40" y="40" width="400" height="240" as="geometry" />
        </mxCell>
        <mxCell id="taNemY95b9fF1orjfdvU-49" value="&lt;font style=&quot;font-size: 18px;&quot;&gt;&lt;b&gt;Sales&lt;/b&gt;&lt;/font&gt;" style="rounded=1;whiteSpace=wrap;html=1;fillColor=light-dark(#FFD966,var(--ge-dark-color, #121212));" vertex="1" parent="1">
          <mxGeometry x="40" y="80" width="200" height="40" as="geometry" />
        </mxCell>
        <mxCell id="taNemY95b9fF1orjfdvU-50" value="&lt;span style=&quot;font-size: 18px;&quot;&gt;&lt;b&gt;Person&lt;/b&gt;&lt;/span&gt;" style="rounded=1;whiteSpace=wrap;html=1;fillColor=light-dark(#97D077,var(--ge-dark-color, #121212));" vertex="1" parent="1">
          <mxGeometry x="40" y="130" width="200" height="40" as="geometry" />
        </mxCell>
        <mxCell id="taNemY95b9fF1orjfdvU-51" value="&lt;span style=&quot;font-size: 18px;&quot;&gt;&lt;b&gt;Kiot&lt;/b&gt;&lt;/span&gt;" style="rounded=1;whiteSpace=wrap;html=1;fillColor=light-dark(#00FFFF,var(--ge-dark-color, #121212));" vertex="1" parent="1">
          <mxGeometry x="280" y="80" width="200" height="40" as="geometry" />
        </mxCell>
        <mxCell id="taNemY95b9fF1orjfdvU-52" value="&lt;span style=&quot;font-size: 18px;&quot;&gt;&lt;b&gt;Blogs&lt;/b&gt;&lt;/span&gt;" style="rounded=1;whiteSpace=wrap;html=1;fillColor=light-dark(#FF66B3,var(--ge-dark-color, #121212));" vertex="1" parent="1">
          <mxGeometry x="280" y="130" width="200" height="40" as="geometry" />
        </mxCell>
        <mxCell id="taNemY95b9fF1orjfdvU-53" value="&lt;span style=&quot;font-size: 18px;&quot;&gt;&lt;b&gt;Production&lt;/b&gt;&lt;/span&gt;" style="rounded=1;whiteSpace=wrap;html=1;fillColor=light-dark(#B5739D,var(--ge-dark-color, #121212));" vertex="1" parent="1">
          <mxGeometry x="40" y="180" width="200" height="40" as="geometry" />
        </mxCell>
        <mxCell id="taNemY95b9fF1orjfdvU-54" value="&lt;span style=&quot;font-size: 18px;&quot;&gt;&lt;b&gt;Warehouse&lt;/b&gt;&lt;/span&gt;" style="rounded=1;whiteSpace=wrap;html=1;fillColor=light-dark(#CCFFCC,var(--ge-dark-color, #121212));" vertex="1" parent="1">
          <mxGeometry x="280" y="180" width="200" height="40" as="geometry" />
        </mxCell>
        <mxCell id="taNemY95b9fF1orjfdvU-55" value="&lt;span style=&quot;font-size: 18px;&quot;&gt;&lt;b&gt;Purchasing&lt;/b&gt;&lt;/span&gt;" style="rounded=1;whiteSpace=wrap;html=1;fillColor=light-dark(#7EA6E0,var(--ge-dark-color, #121212));" vertex="1" parent="1">
          <mxGeometry x="40" y="230" width="200" height="40" as="geometry" />
        </mxCell>
        <mxCell id="taNemY95b9fF1orjfdvU-56" value="&lt;span style=&quot;font-size: 18px;&quot;&gt;&lt;b&gt;Inventory&lt;/b&gt;&lt;/span&gt;" style="rounded=1;whiteSpace=wrap;html=1;fillColor=light-dark(#E1D5E7,var(--ge-dark-color, #121212));" vertex="1" parent="1">
          <mxGeometry x="280" y="230" width="200" height="40" as="geometry" />
        </mxCell>
        <mxCell id="taNemY95b9fF1orjfdvU-57" value="&lt;span style=&quot;font-size: 18px;&quot;&gt;&lt;b&gt;dbo&lt;/b&gt;&lt;/span&gt;" style="rounded=1;whiteSpace=wrap;html=1;fillColor=light-dark(#EA6B66,var(--ge-dark-color, #121212));" vertex="1" parent="1">
          <mxGeometry x="40" y="280" width="200" height="40" as="geometry" />
        </mxCell>
        <mxCell id="taNemY95b9fF1orjfdvU-58" value="&lt;span style=&quot;font-size: 18px;&quot;&gt;&lt;b&gt;System&lt;/b&gt;&lt;/span&gt;" style="rounded=1;whiteSpace=wrap;html=1;fillColor=light-dark(#33FF99,var(--ge-dark-color, #121212));" vertex="1" parent="1">
          <mxGeometry x="280" y="280" width="200" height="40" as="geometry" />
        </mxCell>
        <mxCell id="taNemY95b9fF1orjfdvU-64" value="AddressBook" style="shape=table;startSize=30;container=1;collapsible=1;childLayout=tableLayout;fixedRows=1;rowLines=0;fontStyle=1;align=center;resizeLast=1;html=1;" vertex="1" parent="1">
          <mxGeometry x="130" y="410" width="180" height="160" as="geometry">
            <mxRectangle x="120" y="400" width="110" height="30" as="alternateBounds" />
          </mxGeometry>
        </mxCell>
        <mxCell id="taNemY95b9fF1orjfdvU-65" value="" style="shape=tableRow;horizontal=0;startSize=0;swimlaneHead=0;swimlaneBody=0;fillColor=none;collapsible=0;dropTarget=0;points=[[0,0.5],[1,0.5]];portConstraint=eastwest;top=0;left=0;right=0;bottom=1;" vertex="1" parent="taNemY95b9fF1orjfdvU-64">
          <mxGeometry y="30" width="180" height="30" as="geometry" />
        </mxCell>
        <mxCell id="taNemY95b9fF1orjfdvU-66" value="PK" style="shape=partialRectangle;connectable=0;fillColor=none;top=0;left=0;bottom=0;right=0;fontStyle=1;overflow=hidden;whiteSpace=wrap;html=1;" vertex="1" parent="taNemY95b9fF1orjfdvU-65">
          <mxGeometry width="30" height="30" as="geometry">
            <mxRectangle width="30" height="30" as="alternateBounds" />
          </mxGeometry>
        </mxCell>
        <mxCell id="taNemY95b9fF1orjfdvU-67" value="AddressID" style="shape=partialRectangle;connectable=0;fillColor=none;top=0;left=0;bottom=0;right=0;align=left;spacingLeft=6;fontStyle=5;overflow=hidden;whiteSpace=wrap;html=1;" vertex="1" parent="taNemY95b9fF1orjfdvU-65">
          <mxGeometry x="30" width="150" height="30" as="geometry">
            <mxRectangle width="150" height="30" as="alternateBounds" />
          </mxGeometry>
        </mxCell>
        <mxCell id="taNemY95b9fF1orjfdvU-68" value="" style="shape=tableRow;horizontal=0;startSize=0;swimlaneHead=0;swimlaneBody=0;fillColor=none;collapsible=0;dropTarget=0;points=[[0,0.5],[1,0.5]];portConstraint=eastwest;top=0;left=0;right=0;bottom=0;" vertex="1" parent="taNemY95b9fF1orjfdvU-64">
          <mxGeometry y="60" width="180" height="100" as="geometry" />
        </mxCell>
        <mxCell id="taNemY95b9fF1orjfdvU-69" value="" style="shape=partialRectangle;connectable=0;fillColor=none;top=0;left=0;bottom=0;right=0;editable=1;overflow=hidden;whiteSpace=wrap;html=1;" vertex="1" parent="taNemY95b9fF1orjfdvU-68">
          <mxGeometry width="30" height="100" as="geometry">
            <mxRectangle width="30" height="100" as="alternateBounds" />
          </mxGeometry>
        </mxCell>
        <mxCell id="taNemY95b9fF1orjfdvU-70" value="&lt;div&gt;&lt;font style=&quot;font-size: 14px;&quot;&gt;full_name&lt;/font&gt;&lt;/div&gt;&lt;div&gt;&lt;font size=&quot;3&quot;&gt;phone&lt;/font&gt;&lt;/div&gt;&lt;div&gt;&lt;font size=&quot;3&quot;&gt;total&lt;/font&gt;&lt;/div&gt;&lt;div&gt;&lt;font size=&quot;3&quot;&gt;address&lt;/font&gt;&lt;/div&gt;&lt;div&gt;&lt;font size=&quot;3&quot;&gt;user_id&lt;/font&gt;&lt;/div&gt;" style="shape=partialRectangle;connectable=0;fillColor=none;top=0;left=0;bottom=0;right=0;align=left;spacingLeft=6;overflow=hidden;whiteSpace=wrap;html=1;" vertex="1" parent="taNemY95b9fF1orjfdvU-68">
          <mxGeometry x="30" width="150" height="100" as="geometry">
            <mxRectangle width="150" height="100" as="alternateBounds" />
          </mxGeometry>
        </mxCell>
        <mxCell id="taNemY95b9fF1orjfdvU-71" value="AddressBook" style="shape=table;startSize=30;container=1;collapsible=1;childLayout=tableLayout;fixedRows=1;rowLines=0;fontStyle=1;align=center;resizeLast=1;html=1;" vertex="1" parent="1">
          <mxGeometry x="140" y="600" width="180" height="160" as="geometry">
            <mxRectangle x="120" y="400" width="110" height="30" as="alternateBounds" />
          </mxGeometry>
        </mxCell>
        <mxCell id="taNemY95b9fF1orjfdvU-72" value="" style="shape=tableRow;horizontal=0;startSize=0;swimlaneHead=0;swimlaneBody=0;fillColor=none;collapsible=0;dropTarget=0;points=[[0,0.5],[1,0.5]];portConstraint=eastwest;top=0;left=0;right=0;bottom=1;" vertex="1" parent="taNemY95b9fF1orjfdvU-71">
          <mxGeometry y="30" width="180" height="30" as="geometry" />
        </mxCell>
        <mxCell id="taNemY95b9fF1orjfdvU-73" value="PK" style="shape=partialRectangle;connectable=0;fillColor=none;top=0;left=0;bottom=0;right=0;fontStyle=1;overflow=hidden;whiteSpace=wrap;html=1;" vertex="1" parent="taNemY95b9fF1orjfdvU-72">
          <mxGeometry width="30" height="30" as="geometry">
            <mxRectangle width="30" height="30" as="alternateBounds" />
          </mxGeometry>
        </mxCell>
        <mxCell id="taNemY95b9fF1orjfdvU-74" value="AddressID" style="shape=partialRectangle;connectable=0;fillColor=none;top=0;left=0;bottom=0;right=0;align=left;spacingLeft=6;fontStyle=5;overflow=hidden;whiteSpace=wrap;html=1;" vertex="1" parent="taNemY95b9fF1orjfdvU-72">
          <mxGeometry x="30" width="150" height="30" as="geometry">
            <mxRectangle width="150" height="30" as="alternateBounds" />
          </mxGeometry>
        </mxCell>
        <mxCell id="taNemY95b9fF1orjfdvU-75" value="" style="shape=tableRow;horizontal=0;startSize=0;swimlaneHead=0;swimlaneBody=0;fillColor=none;collapsible=0;dropTarget=0;points=[[0,0.5],[1,0.5]];portConstraint=eastwest;top=0;left=0;right=0;bottom=0;" vertex="1" parent="taNemY95b9fF1orjfdvU-71">
          <mxGeometry y="60" width="180" height="100" as="geometry" />
        </mxCell>
        <mxCell id="taNemY95b9fF1orjfdvU-76" value="" style="shape=partialRectangle;connectable=0;fillColor=none;top=0;left=0;bottom=0;right=0;editable=1;overflow=hidden;whiteSpace=wrap;html=1;" vertex="1" parent="taNemY95b9fF1orjfdvU-75">
          <mxGeometry width="30" height="100" as="geometry">
            <mxRectangle width="30" height="100" as="alternateBounds" />
          </mxGeometry>
        </mxCell>
        <mxCell id="taNemY95b9fF1orjfdvU-77" value="&lt;div&gt;&lt;font style=&quot;font-size: 14px;&quot;&gt;full_name&lt;/font&gt;&lt;/div&gt;&lt;div&gt;&lt;font size=&quot;3&quot;&gt;phone&lt;/font&gt;&lt;/div&gt;&lt;div&gt;&lt;font size=&quot;3&quot;&gt;total&lt;/font&gt;&lt;/div&gt;&lt;div&gt;&lt;font size=&quot;3&quot;&gt;address&lt;/font&gt;&lt;/div&gt;&lt;div&gt;&lt;font size=&quot;3&quot;&gt;user_id&lt;/font&gt;&lt;/div&gt;" style="shape=partialRectangle;connectable=0;fillColor=none;top=0;left=0;bottom=0;right=0;align=left;spacingLeft=6;overflow=hidden;whiteSpace=wrap;html=1;" vertex="1" parent="taNemY95b9fF1orjfdvU-75">
          <mxGeometry x="30" width="150" height="100" as="geometry">
            <mxRectangle width="150" height="100" as="alternateBounds" />
          </mxGeometry>
        </mxCell>
        <mxCell id="taNemY95b9fF1orjfdvU-78" value="AddressBook" style="shape=table;startSize=30;container=1;collapsible=1;childLayout=tableLayout;fixedRows=1;rowLines=0;fontStyle=1;align=center;resizeLast=1;html=1;" vertex="1" parent="1">
          <mxGeometry x="370" y="600" width="180" height="160" as="geometry">
            <mxRectangle x="120" y="400" width="110" height="30" as="alternateBounds" />
          </mxGeometry>
        </mxCell>
        <mxCell id="taNemY95b9fF1orjfdvU-79" value="" style="shape=tableRow;horizontal=0;startSize=0;swimlaneHead=0;swimlaneBody=0;fillColor=none;collapsible=0;dropTarget=0;points=[[0,0.5],[1,0.5]];portConstraint=eastwest;top=0;left=0;right=0;bottom=1;" vertex="1" parent="taNemY95b9fF1orjfdvU-78">
          <mxGeometry y="30" width="180" height="30" as="geometry" />
        </mxCell>
        <mxCell id="taNemY95b9fF1orjfdvU-80" value="PK" style="shape=partialRectangle;connectable=0;fillColor=none;top=0;left=0;bottom=0;right=0;fontStyle=1;overflow=hidden;whiteSpace=wrap;html=1;" vertex="1" parent="taNemY95b9fF1orjfdvU-79">
          <mxGeometry width="30" height="30" as="geometry">
            <mxRectangle width="30" height="30" as="alternateBounds" />
          </mxGeometry>
        </mxCell>
        <mxCell id="taNemY95b9fF1orjfdvU-81" value="AddressID" style="shape=partialRectangle;connectable=0;fillColor=none;top=0;left=0;bottom=0;right=0;align=left;spacingLeft=6;fontStyle=5;overflow=hidden;whiteSpace=wrap;html=1;" vertex="1" parent="taNemY95b9fF1orjfdvU-79">
          <mxGeometry x="30" width="150" height="30" as="geometry">
            <mxRectangle width="150" height="30" as="alternateBounds" />
          </mxGeometry>
        </mxCell>
        <mxCell id="taNemY95b9fF1orjfdvU-82" value="" style="shape=tableRow;horizontal=0;startSize=0;swimlaneHead=0;swimlaneBody=0;fillColor=none;collapsible=0;dropTarget=0;points=[[0,0.5],[1,0.5]];portConstraint=eastwest;top=0;left=0;right=0;bottom=0;" vertex="1" parent="taNemY95b9fF1orjfdvU-78">
          <mxGeometry y="60" width="180" height="100" as="geometry" />
        </mxCell>
        <mxCell id="taNemY95b9fF1orjfdvU-83" value="" style="shape=partialRectangle;connectable=0;fillColor=none;top=0;left=0;bottom=0;right=0;editable=1;overflow=hidden;whiteSpace=wrap;html=1;" vertex="1" parent="taNemY95b9fF1orjfdvU-82">
          <mxGeometry width="30" height="100" as="geometry">
            <mxRectangle width="30" height="100" as="alternateBounds" />
          </mxGeometry>
        </mxCell>
        <mxCell id="taNemY95b9fF1orjfdvU-84" value="&lt;div&gt;&lt;font style=&quot;font-size: 14px;&quot;&gt;full_name&lt;/font&gt;&lt;/div&gt;&lt;div&gt;&lt;font size=&quot;3&quot;&gt;phone&lt;/font&gt;&lt;/div&gt;&lt;div&gt;&lt;font size=&quot;3&quot;&gt;total&lt;/font&gt;&lt;/div&gt;&lt;div&gt;&lt;font size=&quot;3&quot;&gt;address&lt;/font&gt;&lt;/div&gt;&lt;div&gt;&lt;font size=&quot;3&quot;&gt;user_id&lt;/font&gt;&lt;/div&gt;" style="shape=partialRectangle;connectable=0;fillColor=none;top=0;left=0;bottom=0;right=0;align=left;spacingLeft=6;overflow=hidden;whiteSpace=wrap;html=1;" vertex="1" parent="taNemY95b9fF1orjfdvU-82">
          <mxGeometry x="30" width="150" height="100" as="geometry">
            <mxRectangle width="150" height="100" as="alternateBounds" />
          </mxGeometry>
        </mxCell>
        <mxCell id="taNemY95b9fF1orjfdvU-85" value="AddressBook" style="shape=table;startSize=30;container=1;collapsible=1;childLayout=tableLayout;fixedRows=1;rowLines=0;fontStyle=1;align=center;resizeLast=1;html=1;" vertex="1" parent="1">
          <mxGeometry x="600" y="400" width="180" height="160" as="geometry">
            <mxRectangle x="120" y="400" width="110" height="30" as="alternateBounds" />
          </mxGeometry>
        </mxCell>
        <mxCell id="taNemY95b9fF1orjfdvU-86" value="" style="shape=tableRow;horizontal=0;startSize=0;swimlaneHead=0;swimlaneBody=0;fillColor=none;collapsible=0;dropTarget=0;points=[[0,0.5],[1,0.5]];portConstraint=eastwest;top=0;left=0;right=0;bottom=1;" vertex="1" parent="taNemY95b9fF1orjfdvU-85">
          <mxGeometry y="30" width="180" height="30" as="geometry" />
        </mxCell>
        <mxCell id="taNemY95b9fF1orjfdvU-87" value="PK" style="shape=partialRectangle;connectable=0;fillColor=none;top=0;left=0;bottom=0;right=0;fontStyle=1;overflow=hidden;whiteSpace=wrap;html=1;" vertex="1" parent="taNemY95b9fF1orjfdvU-86">
          <mxGeometry width="30" height="30" as="geometry">
            <mxRectangle width="30" height="30" as="alternateBounds" />
          </mxGeometry>
        </mxCell>
        <mxCell id="taNemY95b9fF1orjfdvU-88" value="AddressID" style="shape=partialRectangle;connectable=0;fillColor=none;top=0;left=0;bottom=0;right=0;align=left;spacingLeft=6;fontStyle=5;overflow=hidden;whiteSpace=wrap;html=1;" vertex="1" parent="taNemY95b9fF1orjfdvU-86">
          <mxGeometry x="30" width="150" height="30" as="geometry">
            <mxRectangle width="150" height="30" as="alternateBounds" />
          </mxGeometry>
        </mxCell>
        <mxCell id="taNemY95b9fF1orjfdvU-89" value="" style="shape=tableRow;horizontal=0;startSize=0;swimlaneHead=0;swimlaneBody=0;fillColor=none;collapsible=0;dropTarget=0;points=[[0,0.5],[1,0.5]];portConstraint=eastwest;top=0;left=0;right=0;bottom=0;" vertex="1" parent="taNemY95b9fF1orjfdvU-85">
          <mxGeometry y="60" width="180" height="100" as="geometry" />
        </mxCell>
        <mxCell id="taNemY95b9fF1orjfdvU-90" value="" style="shape=partialRectangle;connectable=0;fillColor=none;top=0;left=0;bottom=0;right=0;editable=1;overflow=hidden;whiteSpace=wrap;html=1;" vertex="1" parent="taNemY95b9fF1orjfdvU-89">
          <mxGeometry width="30" height="100" as="geometry">
            <mxRectangle width="30" height="100" as="alternateBounds" />
          </mxGeometry>
        </mxCell>
        <mxCell id="taNemY95b9fF1orjfdvU-91" value="&lt;div&gt;&lt;font style=&quot;font-size: 14px;&quot;&gt;full_name&lt;/font&gt;&lt;/div&gt;&lt;div&gt;&lt;font size=&quot;3&quot;&gt;phone&lt;/font&gt;&lt;/div&gt;&lt;div&gt;&lt;font size=&quot;3&quot;&gt;total&lt;/font&gt;&lt;/div&gt;&lt;div&gt;&lt;font size=&quot;3&quot;&gt;address&lt;/font&gt;&lt;/div&gt;&lt;div&gt;&lt;font size=&quot;3&quot;&gt;user_id&lt;/font&gt;&lt;/div&gt;" style="shape=partialRectangle;connectable=0;fillColor=none;top=0;left=0;bottom=0;right=0;align=left;spacingLeft=6;overflow=hidden;whiteSpace=wrap;html=1;" vertex="1" parent="taNemY95b9fF1orjfdvU-89">
          <mxGeometry x="30" width="150" height="100" as="geometry">
            <mxRectangle width="150" height="100" as="alternateBounds" />
          </mxGeometry>
        </mxCell>
        <mxCell id="taNemY95b9fF1orjfdvU-92" value="AddressBook" style="shape=table;startSize=30;container=1;collapsible=1;childLayout=tableLayout;fixedRows=1;rowLines=0;fontStyle=1;align=center;resizeLast=1;html=1;" vertex="1" parent="1">
          <mxGeometry x="600" y="600" width="180" height="160" as="geometry">
            <mxRectangle x="120" y="400" width="110" height="30" as="alternateBounds" />
          </mxGeometry>
        </mxCell>
        <mxCell id="taNemY95b9fF1orjfdvU-93" value="" style="shape=tableRow;horizontal=0;startSize=0;swimlaneHead=0;swimlaneBody=0;fillColor=none;collapsible=0;dropTarget=0;points=[[0,0.5],[1,0.5]];portConstraint=eastwest;top=0;left=0;right=0;bottom=1;" vertex="1" parent="taNemY95b9fF1orjfdvU-92">
          <mxGeometry y="30" width="180" height="30" as="geometry" />
        </mxCell>
        <mxCell id="taNemY95b9fF1orjfdvU-94" value="PK" style="shape=partialRectangle;connectable=0;fillColor=none;top=0;left=0;bottom=0;right=0;fontStyle=1;overflow=hidden;whiteSpace=wrap;html=1;" vertex="1" parent="taNemY95b9fF1orjfdvU-93">
          <mxGeometry width="30" height="30" as="geometry">
            <mxRectangle width="30" height="30" as="alternateBounds" />
          </mxGeometry>
        </mxCell>
        <mxCell id="taNemY95b9fF1orjfdvU-95" value="AddressID" style="shape=partialRectangle;connectable=0;fillColor=none;top=0;left=0;bottom=0;right=0;align=left;spacingLeft=6;fontStyle=5;overflow=hidden;whiteSpace=wrap;html=1;" vertex="1" parent="taNemY95b9fF1orjfdvU-93">
          <mxGeometry x="30" width="150" height="30" as="geometry">
            <mxRectangle width="150" height="30" as="alternateBounds" />
          </mxGeometry>
        </mxCell>
        <mxCell id="taNemY95b9fF1orjfdvU-96" value="" style="shape=tableRow;horizontal=0;startSize=0;swimlaneHead=0;swimlaneBody=0;fillColor=none;collapsible=0;dropTarget=0;points=[[0,0.5],[1,0.5]];portConstraint=eastwest;top=0;left=0;right=0;bottom=0;" vertex="1" parent="taNemY95b9fF1orjfdvU-92">
          <mxGeometry y="60" width="180" height="100" as="geometry" />
        </mxCell>
        <mxCell id="taNemY95b9fF1orjfdvU-97" value="" style="shape=partialRectangle;connectable=0;fillColor=none;top=0;left=0;bottom=0;right=0;editable=1;overflow=hidden;whiteSpace=wrap;html=1;" vertex="1" parent="taNemY95b9fF1orjfdvU-96">
          <mxGeometry width="30" height="100" as="geometry">
            <mxRectangle width="30" height="100" as="alternateBounds" />
          </mxGeometry>
        </mxCell>
        <mxCell id="taNemY95b9fF1orjfdvU-98" value="&lt;div&gt;&lt;font style=&quot;font-size: 14px;&quot;&gt;full_name&lt;/font&gt;&lt;/div&gt;&lt;div&gt;&lt;font size=&quot;3&quot;&gt;phone&lt;/font&gt;&lt;/div&gt;&lt;div&gt;&lt;font size=&quot;3&quot;&gt;total&lt;/font&gt;&lt;/div&gt;&lt;div&gt;&lt;font size=&quot;3&quot;&gt;address&lt;/font&gt;&lt;/div&gt;&lt;div&gt;&lt;font size=&quot;3&quot;&gt;user_id&lt;/font&gt;&lt;/div&gt;" style="shape=partialRectangle;connectable=0;fillColor=none;top=0;left=0;bottom=0;right=0;align=left;spacingLeft=6;overflow=hidden;whiteSpace=wrap;html=1;" vertex="1" parent="taNemY95b9fF1orjfdvU-96">
          <mxGeometry x="30" width="150" height="100" as="geometry">
            <mxRectangle width="150" height="100" as="alternateBounds" />
          </mxGeometry>
        </mxCell>
        <mxCell id="taNemY95b9fF1orjfdvU-99" value="AddressBook" style="shape=table;startSize=30;container=1;collapsible=1;childLayout=tableLayout;fixedRows=1;rowLines=0;fontStyle=1;align=center;resizeLast=1;html=1;" vertex="1" parent="1">
          <mxGeometry x="880" y="400" width="180" height="160" as="geometry">
            <mxRectangle x="120" y="400" width="110" height="30" as="alternateBounds" />
          </mxGeometry>
        </mxCell>
        <mxCell id="taNemY95b9fF1orjfdvU-100" value="" style="shape=tableRow;horizontal=0;startSize=0;swimlaneHead=0;swimlaneBody=0;fillColor=none;collapsible=0;dropTarget=0;points=[[0,0.5],[1,0.5]];portConstraint=eastwest;top=0;left=0;right=0;bottom=1;" vertex="1" parent="taNemY95b9fF1orjfdvU-99">
          <mxGeometry y="30" width="180" height="30" as="geometry" />
        </mxCell>
        <mxCell id="taNemY95b9fF1orjfdvU-101" value="PK" style="shape=partialRectangle;connectable=0;fillColor=none;top=0;left=0;bottom=0;right=0;fontStyle=1;overflow=hidden;whiteSpace=wrap;html=1;" vertex="1" parent="taNemY95b9fF1orjfdvU-100">
          <mxGeometry width="30" height="30" as="geometry">
            <mxRectangle width="30" height="30" as="alternateBounds" />
          </mxGeometry>
        </mxCell>
        <mxCell id="taNemY95b9fF1orjfdvU-102" value="AddressID" style="shape=partialRectangle;connectable=0;fillColor=none;top=0;left=0;bottom=0;right=0;align=left;spacingLeft=6;fontStyle=5;overflow=hidden;whiteSpace=wrap;html=1;" vertex="1" parent="taNemY95b9fF1orjfdvU-100">
          <mxGeometry x="30" width="150" height="30" as="geometry">
            <mxRectangle width="150" height="30" as="alternateBounds" />
          </mxGeometry>
        </mxCell>
        <mxCell id="taNemY95b9fF1orjfdvU-103" value="" style="shape=tableRow;horizontal=0;startSize=0;swimlaneHead=0;swimlaneBody=0;fillColor=none;collapsible=0;dropTarget=0;points=[[0,0.5],[1,0.5]];portConstraint=eastwest;top=0;left=0;right=0;bottom=0;" vertex="1" parent="taNemY95b9fF1orjfdvU-99">
          <mxGeometry y="60" width="180" height="100" as="geometry" />
        </mxCell>
        <mxCell id="taNemY95b9fF1orjfdvU-104" value="" style="shape=partialRectangle;connectable=0;fillColor=none;top=0;left=0;bottom=0;right=0;editable=1;overflow=hidden;whiteSpace=wrap;html=1;" vertex="1" parent="taNemY95b9fF1orjfdvU-103">
          <mxGeometry width="30" height="100" as="geometry">
            <mxRectangle width="30" height="100" as="alternateBounds" />
          </mxGeometry>
        </mxCell>
        <mxCell id="taNemY95b9fF1orjfdvU-105" value="&lt;div&gt;&lt;font style=&quot;font-size: 14px;&quot;&gt;full_name&lt;/font&gt;&lt;/div&gt;&lt;div&gt;&lt;font size=&quot;3&quot;&gt;phone&lt;/font&gt;&lt;/div&gt;&lt;div&gt;&lt;font size=&quot;3&quot;&gt;total&lt;/font&gt;&lt;/div&gt;&lt;div&gt;&lt;font size=&quot;3&quot;&gt;address&lt;/font&gt;&lt;/div&gt;&lt;div&gt;&lt;font size=&quot;3&quot;&gt;user_id&lt;/font&gt;&lt;/div&gt;" style="shape=partialRectangle;connectable=0;fillColor=none;top=0;left=0;bottom=0;right=0;align=left;spacingLeft=6;overflow=hidden;whiteSpace=wrap;html=1;" vertex="1" parent="taNemY95b9fF1orjfdvU-103">
          <mxGeometry x="30" width="150" height="100" as="geometry">
            <mxRectangle width="150" height="100" as="alternateBounds" />
          </mxGeometry>
        </mxCell>
        <mxCell id="taNemY95b9fF1orjfdvU-106" value="AddressBook" style="shape=table;startSize=30;container=1;collapsible=1;childLayout=tableLayout;fixedRows=1;rowLines=0;fontStyle=1;align=center;resizeLast=1;html=1;" vertex="1" parent="1">
          <mxGeometry x="590" y="80" width="180" height="160" as="geometry">
            <mxRectangle x="120" y="400" width="110" height="30" as="alternateBounds" />
          </mxGeometry>
        </mxCell>
        <mxCell id="taNemY95b9fF1orjfdvU-107" value="" style="shape=tableRow;horizontal=0;startSize=0;swimlaneHead=0;swimlaneBody=0;fillColor=none;collapsible=0;dropTarget=0;points=[[0,0.5],[1,0.5]];portConstraint=eastwest;top=0;left=0;right=0;bottom=1;" vertex="1" parent="taNemY95b9fF1orjfdvU-106">
          <mxGeometry y="30" width="180" height="30" as="geometry" />
        </mxCell>
        <mxCell id="taNemY95b9fF1orjfdvU-108" value="PK" style="shape=partialRectangle;connectable=0;fillColor=none;top=0;left=0;bottom=0;right=0;fontStyle=1;overflow=hidden;whiteSpace=wrap;html=1;" vertex="1" parent="taNemY95b9fF1orjfdvU-107">
          <mxGeometry width="30" height="30" as="geometry">
            <mxRectangle width="30" height="30" as="alternateBounds" />
          </mxGeometry>
        </mxCell>
        <mxCell id="taNemY95b9fF1orjfdvU-109" value="AddressID" style="shape=partialRectangle;connectable=0;fillColor=none;top=0;left=0;bottom=0;right=0;align=left;spacingLeft=6;fontStyle=5;overflow=hidden;whiteSpace=wrap;html=1;" vertex="1" parent="taNemY95b9fF1orjfdvU-107">
          <mxGeometry x="30" width="150" height="30" as="geometry">
            <mxRectangle width="150" height="30" as="alternateBounds" />
          </mxGeometry>
        </mxCell>
        <mxCell id="taNemY95b9fF1orjfdvU-110" value="" style="shape=tableRow;horizontal=0;startSize=0;swimlaneHead=0;swimlaneBody=0;fillColor=none;collapsible=0;dropTarget=0;points=[[0,0.5],[1,0.5]];portConstraint=eastwest;top=0;left=0;right=0;bottom=0;" vertex="1" parent="taNemY95b9fF1orjfdvU-106">
          <mxGeometry y="60" width="180" height="100" as="geometry" />
        </mxCell>
        <mxCell id="taNemY95b9fF1orjfdvU-111" value="" style="shape=partialRectangle;connectable=0;fillColor=none;top=0;left=0;bottom=0;right=0;editable=1;overflow=hidden;whiteSpace=wrap;html=1;" vertex="1" parent="taNemY95b9fF1orjfdvU-110">
          <mxGeometry width="30" height="100" as="geometry">
            <mxRectangle width="30" height="100" as="alternateBounds" />
          </mxGeometry>
        </mxCell>
        <mxCell id="taNemY95b9fF1orjfdvU-112" value="&lt;div&gt;&lt;font style=&quot;font-size: 14px;&quot;&gt;full_name&lt;/font&gt;&lt;/div&gt;&lt;div&gt;&lt;font size=&quot;3&quot;&gt;phone&lt;/font&gt;&lt;/div&gt;&lt;div&gt;&lt;font size=&quot;3&quot;&gt;total&lt;/font&gt;&lt;/div&gt;&lt;div&gt;&lt;font size=&quot;3&quot;&gt;address&lt;/font&gt;&lt;/div&gt;&lt;div&gt;&lt;font size=&quot;3&quot;&gt;user_id&lt;/font&gt;&lt;/div&gt;" style="shape=partialRectangle;connectable=0;fillColor=none;top=0;left=0;bottom=0;right=0;align=left;spacingLeft=6;overflow=hidden;whiteSpace=wrap;html=1;" vertex="1" parent="taNemY95b9fF1orjfdvU-110">
          <mxGeometry x="30" width="150" height="100" as="geometry">
            <mxRectangle width="150" height="100" as="alternateBounds" />
          </mxGeometry>
        </mxCell>
        <mxCell id="taNemY95b9fF1orjfdvU-113" value="AddressBook" style="shape=table;startSize=30;container=1;collapsible=1;childLayout=tableLayout;fixedRows=1;rowLines=0;fontStyle=1;align=center;resizeLast=1;html=1;" vertex="1" parent="1">
          <mxGeometry x="900" y="70" width="180" height="160" as="geometry">
            <mxRectangle x="120" y="400" width="110" height="30" as="alternateBounds" />
          </mxGeometry>
        </mxCell>
        <mxCell id="taNemY95b9fF1orjfdvU-114" value="" style="shape=tableRow;horizontal=0;startSize=0;swimlaneHead=0;swimlaneBody=0;fillColor=none;collapsible=0;dropTarget=0;points=[[0,0.5],[1,0.5]];portConstraint=eastwest;top=0;left=0;right=0;bottom=1;" vertex="1" parent="taNemY95b9fF1orjfdvU-113">
          <mxGeometry y="30" width="180" height="30" as="geometry" />
        </mxCell>
        <mxCell id="taNemY95b9fF1orjfdvU-115" value="PK" style="shape=partialRectangle;connectable=0;fillColor=none;top=0;left=0;bottom=0;right=0;fontStyle=1;overflow=hidden;whiteSpace=wrap;html=1;" vertex="1" parent="taNemY95b9fF1orjfdvU-114">
          <mxGeometry width="30" height="30" as="geometry">
            <mxRectangle width="30" height="30" as="alternateBounds" />
          </mxGeometry>
        </mxCell>
        <mxCell id="taNemY95b9fF1orjfdvU-116" value="AddressID" style="shape=partialRectangle;connectable=0;fillColor=none;top=0;left=0;bottom=0;right=0;align=left;spacingLeft=6;fontStyle=5;overflow=hidden;whiteSpace=wrap;html=1;" vertex="1" parent="taNemY95b9fF1orjfdvU-114">
          <mxGeometry x="30" width="150" height="30" as="geometry">
            <mxRectangle width="150" height="30" as="alternateBounds" />
          </mxGeometry>
        </mxCell>
        <mxCell id="taNemY95b9fF1orjfdvU-117" value="" style="shape=tableRow;horizontal=0;startSize=0;swimlaneHead=0;swimlaneBody=0;fillColor=none;collapsible=0;dropTarget=0;points=[[0,0.5],[1,0.5]];portConstraint=eastwest;top=0;left=0;right=0;bottom=0;" vertex="1" parent="taNemY95b9fF1orjfdvU-113">
          <mxGeometry y="60" width="180" height="100" as="geometry" />
        </mxCell>
        <mxCell id="taNemY95b9fF1orjfdvU-118" value="" style="shape=partialRectangle;connectable=0;fillColor=none;top=0;left=0;bottom=0;right=0;editable=1;overflow=hidden;whiteSpace=wrap;html=1;" vertex="1" parent="taNemY95b9fF1orjfdvU-117">
          <mxGeometry width="30" height="100" as="geometry">
            <mxRectangle width="30" height="100" as="alternateBounds" />
          </mxGeometry>
        </mxCell>
        <mxCell id="taNemY95b9fF1orjfdvU-119" value="&lt;div&gt;&lt;font style=&quot;font-size: 14px;&quot;&gt;full_name&lt;/font&gt;&lt;/div&gt;&lt;div&gt;&lt;font size=&quot;3&quot;&gt;phone&lt;/font&gt;&lt;/div&gt;&lt;div&gt;&lt;font size=&quot;3&quot;&gt;total&lt;/font&gt;&lt;/div&gt;&lt;div&gt;&lt;font size=&quot;3&quot;&gt;address&lt;/font&gt;&lt;/div&gt;&lt;div&gt;&lt;font size=&quot;3&quot;&gt;user_id&lt;/font&gt;&lt;/div&gt;" style="shape=partialRectangle;connectable=0;fillColor=none;top=0;left=0;bottom=0;right=0;align=left;spacingLeft=6;overflow=hidden;whiteSpace=wrap;html=1;" vertex="1" parent="taNemY95b9fF1orjfdvU-117">
          <mxGeometry x="30" width="150" height="100" as="geometry">
            <mxRectangle width="150" height="100" as="alternateBounds" />
          </mxGeometry>
        </mxCell>
        <mxCell id="taNemY95b9fF1orjfdvU-120" value="AddressBook" style="shape=table;startSize=30;container=1;collapsible=1;childLayout=tableLayout;fixedRows=1;rowLines=0;fontStyle=1;align=center;resizeLast=1;html=1;" vertex="1" parent="1">
          <mxGeometry x="1130" y="80" width="180" height="160" as="geometry">
            <mxRectangle x="120" y="400" width="110" height="30" as="alternateBounds" />
          </mxGeometry>
        </mxCell>
        <mxCell id="taNemY95b9fF1orjfdvU-121" value="" style="shape=tableRow;horizontal=0;startSize=0;swimlaneHead=0;swimlaneBody=0;fillColor=none;collapsible=0;dropTarget=0;points=[[0,0.5],[1,0.5]];portConstraint=eastwest;top=0;left=0;right=0;bottom=1;" vertex="1" parent="taNemY95b9fF1orjfdvU-120">
          <mxGeometry y="30" width="180" height="30" as="geometry" />
        </mxCell>
        <mxCell id="taNemY95b9fF1orjfdvU-122" value="PK" style="shape=partialRectangle;connectable=0;fillColor=none;top=0;left=0;bottom=0;right=0;fontStyle=1;overflow=hidden;whiteSpace=wrap;html=1;" vertex="1" parent="taNemY95b9fF1orjfdvU-121">
          <mxGeometry width="30" height="30" as="geometry">
            <mxRectangle width="30" height="30" as="alternateBounds" />
          </mxGeometry>
        </mxCell>
        <mxCell id="taNemY95b9fF1orjfdvU-123" value="AddressID" style="shape=partialRectangle;connectable=0;fillColor=none;top=0;left=0;bottom=0;right=0;align=left;spacingLeft=6;fontStyle=5;overflow=hidden;whiteSpace=wrap;html=1;" vertex="1" parent="taNemY95b9fF1orjfdvU-121">
          <mxGeometry x="30" width="150" height="30" as="geometry">
            <mxRectangle width="150" height="30" as="alternateBounds" />
          </mxGeometry>
        </mxCell>
        <mxCell id="taNemY95b9fF1orjfdvU-124" value="" style="shape=tableRow;horizontal=0;startSize=0;swimlaneHead=0;swimlaneBody=0;fillColor=none;collapsible=0;dropTarget=0;points=[[0,0.5],[1,0.5]];portConstraint=eastwest;top=0;left=0;right=0;bottom=0;" vertex="1" parent="taNemY95b9fF1orjfdvU-120">
          <mxGeometry y="60" width="180" height="100" as="geometry" />
        </mxCell>
        <mxCell id="taNemY95b9fF1orjfdvU-125" value="" style="shape=partialRectangle;connectable=0;fillColor=none;top=0;left=0;bottom=0;right=0;editable=1;overflow=hidden;whiteSpace=wrap;html=1;" vertex="1" parent="taNemY95b9fF1orjfdvU-124">
          <mxGeometry width="30" height="100" as="geometry">
            <mxRectangle width="30" height="100" as="alternateBounds" />
          </mxGeometry>
        </mxCell>
        <mxCell id="taNemY95b9fF1orjfdvU-126" value="&lt;div&gt;&lt;font style=&quot;font-size: 14px;&quot;&gt;full_name&lt;/font&gt;&lt;/div&gt;&lt;div&gt;&lt;font size=&quot;3&quot;&gt;phone&lt;/font&gt;&lt;/div&gt;&lt;div&gt;&lt;font size=&quot;3&quot;&gt;total&lt;/font&gt;&lt;/div&gt;&lt;div&gt;&lt;font size=&quot;3&quot;&gt;address&lt;/font&gt;&lt;/div&gt;&lt;div&gt;&lt;font size=&quot;3&quot;&gt;user_id&lt;/font&gt;&lt;/div&gt;" style="shape=partialRectangle;connectable=0;fillColor=none;top=0;left=0;bottom=0;right=0;align=left;spacingLeft=6;overflow=hidden;whiteSpace=wrap;html=1;" vertex="1" parent="taNemY95b9fF1orjfdvU-124">
          <mxGeometry x="30" width="150" height="100" as="geometry">
            <mxRectangle width="150" height="100" as="alternateBounds" />
          </mxGeometry>
        </mxCell>
        <mxCell id="taNemY95b9fF1orjfdvU-127" value="AddressBook" style="shape=table;startSize=30;container=1;collapsible=1;childLayout=tableLayout;fixedRows=1;rowLines=0;fontStyle=1;align=center;resizeLast=1;html=1;" vertex="1" parent="1">
          <mxGeometry x="1130" y="280" width="180" height="160" as="geometry">
            <mxRectangle x="120" y="400" width="110" height="30" as="alternateBounds" />
          </mxGeometry>
        </mxCell>
        <mxCell id="taNemY95b9fF1orjfdvU-128" value="" style="shape=tableRow;horizontal=0;startSize=0;swimlaneHead=0;swimlaneBody=0;fillColor=none;collapsible=0;dropTarget=0;points=[[0,0.5],[1,0.5]];portConstraint=eastwest;top=0;left=0;right=0;bottom=1;" vertex="1" parent="taNemY95b9fF1orjfdvU-127">
          <mxGeometry y="30" width="180" height="30" as="geometry" />
        </mxCell>
        <mxCell id="taNemY95b9fF1orjfdvU-129" value="PK" style="shape=partialRectangle;connectable=0;fillColor=none;top=0;left=0;bottom=0;right=0;fontStyle=1;overflow=hidden;whiteSpace=wrap;html=1;" vertex="1" parent="taNemY95b9fF1orjfdvU-128">
          <mxGeometry width="30" height="30" as="geometry">
            <mxRectangle width="30" height="30" as="alternateBounds" />
          </mxGeometry>
        </mxCell>
        <mxCell id="taNemY95b9fF1orjfdvU-130" value="AddressID" style="shape=partialRectangle;connectable=0;fillColor=none;top=0;left=0;bottom=0;right=0;align=left;spacingLeft=6;fontStyle=5;overflow=hidden;whiteSpace=wrap;html=1;" vertex="1" parent="taNemY95b9fF1orjfdvU-128">
          <mxGeometry x="30" width="150" height="30" as="geometry">
            <mxRectangle width="150" height="30" as="alternateBounds" />
          </mxGeometry>
        </mxCell>
        <mxCell id="taNemY95b9fF1orjfdvU-131" value="" style="shape=tableRow;horizontal=0;startSize=0;swimlaneHead=0;swimlaneBody=0;fillColor=none;collapsible=0;dropTarget=0;points=[[0,0.5],[1,0.5]];portConstraint=eastwest;top=0;left=0;right=0;bottom=0;" vertex="1" parent="taNemY95b9fF1orjfdvU-127">
          <mxGeometry y="60" width="180" height="100" as="geometry" />
        </mxCell>
        <mxCell id="taNemY95b9fF1orjfdvU-132" value="" style="shape=partialRectangle;connectable=0;fillColor=none;top=0;left=0;bottom=0;right=0;editable=1;overflow=hidden;whiteSpace=wrap;html=1;" vertex="1" parent="taNemY95b9fF1orjfdvU-131">
          <mxGeometry width="30" height="100" as="geometry">
            <mxRectangle width="30" height="100" as="alternateBounds" />
          </mxGeometry>
        </mxCell>
        <mxCell id="taNemY95b9fF1orjfdvU-133" value="&lt;div&gt;&lt;font style=&quot;font-size: 14px;&quot;&gt;full_name&lt;/font&gt;&lt;/div&gt;&lt;div&gt;&lt;font size=&quot;3&quot;&gt;phone&lt;/font&gt;&lt;/div&gt;&lt;div&gt;&lt;font size=&quot;3&quot;&gt;total&lt;/font&gt;&lt;/div&gt;&lt;div&gt;&lt;font size=&quot;3&quot;&gt;address&lt;/font&gt;&lt;/div&gt;&lt;div&gt;&lt;font size=&quot;3&quot;&gt;user_id&lt;/font&gt;&lt;/div&gt;" style="shape=partialRectangle;connectable=0;fillColor=none;top=0;left=0;bottom=0;right=0;align=left;spacingLeft=6;overflow=hidden;whiteSpace=wrap;html=1;" vertex="1" parent="taNemY95b9fF1orjfdvU-131">
          <mxGeometry x="30" width="150" height="100" as="geometry">
            <mxRectangle width="150" height="100" as="alternateBounds" />
          </mxGeometry>
        </mxCell>
        <mxCell id="taNemY95b9fF1orjfdvU-135" value="AddressBook" style="shape=table;startSize=30;container=1;collapsible=1;childLayout=tableLayout;fixedRows=1;rowLines=0;fontStyle=1;align=center;resizeLast=1;html=1;" vertex="1" parent="1">
          <mxGeometry x="1370" y="80" width="180" height="160" as="geometry">
            <mxRectangle x="120" y="400" width="110" height="30" as="alternateBounds" />
          </mxGeometry>
        </mxCell>
        <mxCell id="taNemY95b9fF1orjfdvU-136" value="" style="shape=tableRow;horizontal=0;startSize=0;swimlaneHead=0;swimlaneBody=0;fillColor=none;collapsible=0;dropTarget=0;points=[[0,0.5],[1,0.5]];portConstraint=eastwest;top=0;left=0;right=0;bottom=1;" vertex="1" parent="taNemY95b9fF1orjfdvU-135">
          <mxGeometry y="30" width="180" height="30" as="geometry" />
        </mxCell>
        <mxCell id="taNemY95b9fF1orjfdvU-137" value="PK" style="shape=partialRectangle;connectable=0;fillColor=none;top=0;left=0;bottom=0;right=0;fontStyle=1;overflow=hidden;whiteSpace=wrap;html=1;" vertex="1" parent="taNemY95b9fF1orjfdvU-136">
          <mxGeometry width="30" height="30" as="geometry">
            <mxRectangle width="30" height="30" as="alternateBounds" />
          </mxGeometry>
        </mxCell>
        <mxCell id="taNemY95b9fF1orjfdvU-138" value="AddressID" style="shape=partialRectangle;connectable=0;fillColor=none;top=0;left=0;bottom=0;right=0;align=left;spacingLeft=6;fontStyle=5;overflow=hidden;whiteSpace=wrap;html=1;" vertex="1" parent="taNemY95b9fF1orjfdvU-136">
          <mxGeometry x="30" width="150" height="30" as="geometry">
            <mxRectangle width="150" height="30" as="alternateBounds" />
          </mxGeometry>
        </mxCell>
        <mxCell id="taNemY95b9fF1orjfdvU-139" value="" style="shape=tableRow;horizontal=0;startSize=0;swimlaneHead=0;swimlaneBody=0;fillColor=none;collapsible=0;dropTarget=0;points=[[0,0.5],[1,0.5]];portConstraint=eastwest;top=0;left=0;right=0;bottom=0;" vertex="1" parent="taNemY95b9fF1orjfdvU-135">
          <mxGeometry y="60" width="180" height="100" as="geometry" />
        </mxCell>
        <mxCell id="taNemY95b9fF1orjfdvU-140" value="" style="shape=partialRectangle;connectable=0;fillColor=none;top=0;left=0;bottom=0;right=0;editable=1;overflow=hidden;whiteSpace=wrap;html=1;" vertex="1" parent="taNemY95b9fF1orjfdvU-139">
          <mxGeometry width="30" height="100" as="geometry">
            <mxRectangle width="30" height="100" as="alternateBounds" />
          </mxGeometry>
        </mxCell>
        <mxCell id="taNemY95b9fF1orjfdvU-141" value="&lt;div&gt;&lt;font style=&quot;font-size: 14px;&quot;&gt;full_name&lt;/font&gt;&lt;/div&gt;&lt;div&gt;&lt;font size=&quot;3&quot;&gt;phone&lt;/font&gt;&lt;/div&gt;&lt;div&gt;&lt;font size=&quot;3&quot;&gt;total&lt;/font&gt;&lt;/div&gt;&lt;div&gt;&lt;font size=&quot;3&quot;&gt;address&lt;/font&gt;&lt;/div&gt;&lt;div&gt;&lt;font size=&quot;3&quot;&gt;user_id&lt;/font&gt;&lt;/div&gt;" style="shape=partialRectangle;connectable=0;fillColor=none;top=0;left=0;bottom=0;right=0;align=left;spacingLeft=6;overflow=hidden;whiteSpace=wrap;html=1;" vertex="1" parent="taNemY95b9fF1orjfdvU-139">
          <mxGeometry x="30" width="150" height="100" as="geometry">
            <mxRectangle width="150" height="100" as="alternateBounds" />
          </mxGeometry>
        </mxCell>
        <mxCell id="taNemY95b9fF1orjfdvU-142" value="AddressBook" style="shape=table;startSize=30;container=1;collapsible=1;childLayout=tableLayout;fixedRows=1;rowLines=0;fontStyle=1;align=center;resizeLast=1;html=1;" vertex="1" parent="1">
          <mxGeometry x="880" y="600" width="180" height="160" as="geometry">
            <mxRectangle x="120" y="400" width="110" height="30" as="alternateBounds" />
          </mxGeometry>
        </mxCell>
        <mxCell id="taNemY95b9fF1orjfdvU-143" value="" style="shape=tableRow;horizontal=0;startSize=0;swimlaneHead=0;swimlaneBody=0;fillColor=none;collapsible=0;dropTarget=0;points=[[0,0.5],[1,0.5]];portConstraint=eastwest;top=0;left=0;right=0;bottom=1;" vertex="1" parent="taNemY95b9fF1orjfdvU-142">
          <mxGeometry y="30" width="180" height="30" as="geometry" />
        </mxCell>
        <mxCell id="taNemY95b9fF1orjfdvU-144" value="PK" style="shape=partialRectangle;connectable=0;fillColor=none;top=0;left=0;bottom=0;right=0;fontStyle=1;overflow=hidden;whiteSpace=wrap;html=1;" vertex="1" parent="taNemY95b9fF1orjfdvU-143">
          <mxGeometry width="30" height="30" as="geometry">
            <mxRectangle width="30" height="30" as="alternateBounds" />
          </mxGeometry>
        </mxCell>
        <mxCell id="taNemY95b9fF1orjfdvU-145" value="AddressID" style="shape=partialRectangle;connectable=0;fillColor=none;top=0;left=0;bottom=0;right=0;align=left;spacingLeft=6;fontStyle=5;overflow=hidden;whiteSpace=wrap;html=1;" vertex="1" parent="taNemY95b9fF1orjfdvU-143">
          <mxGeometry x="30" width="150" height="30" as="geometry">
            <mxRectangle width="150" height="30" as="alternateBounds" />
          </mxGeometry>
        </mxCell>
        <mxCell id="taNemY95b9fF1orjfdvU-146" value="" style="shape=tableRow;horizontal=0;startSize=0;swimlaneHead=0;swimlaneBody=0;fillColor=none;collapsible=0;dropTarget=0;points=[[0,0.5],[1,0.5]];portConstraint=eastwest;top=0;left=0;right=0;bottom=0;" vertex="1" parent="taNemY95b9fF1orjfdvU-142">
          <mxGeometry y="60" width="180" height="100" as="geometry" />
        </mxCell>
        <mxCell id="taNemY95b9fF1orjfdvU-147" value="" style="shape=partialRectangle;connectable=0;fillColor=none;top=0;left=0;bottom=0;right=0;editable=1;overflow=hidden;whiteSpace=wrap;html=1;" vertex="1" parent="taNemY95b9fF1orjfdvU-146">
          <mxGeometry width="30" height="100" as="geometry">
            <mxRectangle width="30" height="100" as="alternateBounds" />
          </mxGeometry>
        </mxCell>
        <mxCell id="taNemY95b9fF1orjfdvU-148" value="&lt;div&gt;&lt;font style=&quot;font-size: 14px;&quot;&gt;full_name&lt;/font&gt;&lt;/div&gt;&lt;div&gt;&lt;font size=&quot;3&quot;&gt;phone&lt;/font&gt;&lt;/div&gt;&lt;div&gt;&lt;font size=&quot;3&quot;&gt;total&lt;/font&gt;&lt;/div&gt;&lt;div&gt;&lt;font size=&quot;3&quot;&gt;address&lt;/font&gt;&lt;/div&gt;&lt;div&gt;&lt;font size=&quot;3&quot;&gt;user_id&lt;/font&gt;&lt;/div&gt;" style="shape=partialRectangle;connectable=0;fillColor=none;top=0;left=0;bottom=0;right=0;align=left;spacingLeft=6;overflow=hidden;whiteSpace=wrap;html=1;" vertex="1" parent="taNemY95b9fF1orjfdvU-146">
          <mxGeometry x="30" width="150" height="100" as="geometry">
            <mxRectangle width="150" height="100" as="alternateBounds" />
          </mxGeometry>
        </mxCell>
      </root>
    </mxGraphModel>
  </diagram>
  <diagram id="C5RBs43oDa-KdzZeNtuy" name="Class Diagram">
    <mxGraphModel dx="1229" dy="530" grid="1" gridSize="10" guides="1" tooltips="1" connect="1" arrows="1" fold="1" page="1" pageScale="1" pageWidth="827" pageHeight="1169" math="0" shadow="0">
      <root>
        <mxCell id="WIyWlLk6GJQsqaUBKTNV-0" />
        <mxCell id="WIyWlLk6GJQsqaUBKTNV-1" parent="WIyWlLk6GJQsqaUBKTNV-0" />
        <mxCell id="gBkaTlMZyXjPs890hYN8-29" value="&lt;p class=&quot;MsoNormal&quot;&gt;&lt;b&gt;&lt;span style=&quot;mso-spacerun:&#39;yes&#39;;font-family:&#39;Times New Roman&#39;;color:rgb(255,0,0);&#xa;font-weight:bold;font-size:13,0000pt;&quot;&gt;address_books&lt;/span&gt;&lt;/b&gt;&lt;/p&gt;" style="rounded=0;whiteSpace=wrap;html=1;" parent="WIyWlLk6GJQsqaUBKTNV-1" vertex="1">
          <mxGeometry x="160" y="600" width="120" height="40" as="geometry" />
        </mxCell>
        <mxCell id="gBkaTlMZyXjPs890hYN8-30" value="&lt;p class=&quot;MsoNormal&quot;&gt;&lt;font face=&quot;Times New Roman&quot; color=&quot;#ff0000&quot;&gt;&lt;b&gt;banners&lt;/b&gt;&lt;/font&gt;&lt;/p&gt;" style="rounded=0;whiteSpace=wrap;html=1;" parent="WIyWlLk6GJQsqaUBKTNV-1" vertex="1">
          <mxGeometry x="360" y="1240" width="120" height="40" as="geometry" />
        </mxCell>
        <mxCell id="gBkaTlMZyXjPs890hYN8-31" value="&lt;p class=&quot;MsoNormal&quot;&gt;&lt;font face=&quot;Times New Roman&quot; color=&quot;#ff0000&quot;&gt;&lt;b&gt;blogs&lt;/b&gt;&lt;/font&gt;&lt;/p&gt;" style="rounded=0;whiteSpace=wrap;html=1;" parent="WIyWlLk6GJQsqaUBKTNV-1" vertex="1">
          <mxGeometry x="520" y="1240" width="120" height="40" as="geometry" />
        </mxCell>
        <mxCell id="gBkaTlMZyXjPs890hYN8-32" value="&lt;p class=&quot;MsoNormal&quot;&gt;&lt;b&gt;&lt;span style=&quot;font-family: &amp;quot;Times New Roman&amp;quot;; color: rgb(255, 0, 0);&quot;&gt;blog_categories&lt;/span&gt;&lt;/b&gt;&lt;/p&gt;" style="rounded=0;whiteSpace=wrap;html=1;" parent="WIyWlLk6GJQsqaUBKTNV-1" vertex="1">
          <mxGeometry x="200" y="1240" width="120" height="40" as="geometry" />
        </mxCell>
        <mxCell id="gBkaTlMZyXjPs890hYN8-33" value="&lt;p class=&quot;MsoNormal&quot;&gt;&lt;b&gt;&lt;span style=&quot;font-family: &amp;quot;Times New Roman&amp;quot;; color: rgb(255, 0, 0);&quot;&gt;brand&lt;/span&gt;&lt;/b&gt;&lt;/p&gt;" style="rounded=0;whiteSpace=wrap;html=1;" parent="WIyWlLk6GJQsqaUBKTNV-1" vertex="1">
          <mxGeometry x="360" y="1400" width="120" height="40" as="geometry" />
        </mxCell>
        <mxCell id="gBkaTlMZyXjPs890hYN8-34" value="&lt;p class=&quot;MsoNormal&quot;&gt;&lt;b&gt;&lt;span style=&quot;font-family: &amp;quot;Times New Roman&amp;quot;; color: rgb(255, 0, 0);&quot;&gt;categories&lt;/span&gt;&lt;/b&gt;&lt;/p&gt;" style="rounded=0;whiteSpace=wrap;html=1;" parent="WIyWlLk6GJQsqaUBKTNV-1" vertex="1">
          <mxGeometry x="360" y="1560" width="120" height="40" as="geometry" />
        </mxCell>
        <mxCell id="gBkaTlMZyXjPs890hYN8-35" value="&lt;p class=&quot;MsoNormal&quot;&gt;&lt;b&gt;&lt;span style=&quot;mso-spacerun:&#39;yes&#39;;font-family:&#39;Times New Roman&#39;;color:rgb(255,0,0);&#xa;font-weight:bold;font-size:13,0000pt;&quot;&gt;cmd_functions&lt;/span&gt;&lt;/b&gt;&lt;/p&gt;" style="rounded=0;whiteSpace=wrap;html=1;" parent="WIyWlLk6GJQsqaUBKTNV-1" vertex="1">
          <mxGeometry x="360" y="1320" width="120" height="40" as="geometry" />
        </mxCell>
        <mxCell id="gBkaTlMZyXjPs890hYN8-36" value="&lt;p class=&quot;MsoNormal&quot;&gt;&lt;b&gt;&lt;span style=&quot;font-family: &amp;quot;Times New Roman&amp;quot;; color: rgb(255, 0, 0);&quot;&gt;comments&lt;/span&gt;&lt;/b&gt;&lt;/p&gt;" style="rounded=0;whiteSpace=wrap;html=1;" parent="WIyWlLk6GJQsqaUBKTNV-1" vertex="1">
          <mxGeometry x="360" y="1480" width="120" height="40" as="geometry" />
        </mxCell>
        <mxCell id="gBkaTlMZyXjPs890hYN8-37" value="&lt;p class=&quot;MsoNormal&quot;&gt;&lt;b&gt;&lt;span style=&quot;font-family: &amp;quot;Times New Roman&amp;quot;; color: rgb(255, 0, 0);&quot;&gt;front_orders&lt;/span&gt;&lt;/b&gt;&lt;/p&gt;" style="rounded=0;whiteSpace=wrap;html=1;" parent="WIyWlLk6GJQsqaUBKTNV-1" vertex="1">
          <mxGeometry x="240" y="800" width="120" height="40" as="geometry" />
        </mxCell>
        <mxCell id="gBkaTlMZyXjPs890hYN8-38" value="&lt;p class=&quot;MsoNormal&quot;&gt;&lt;b&gt;&lt;span style=&quot;mso-spacerun:&#39;yes&#39;;font-family:&#39;Times New Roman&#39;;color:rgb(255,0,0);&#xa;font-weight:bold;font-size:13,0000pt;&quot;&gt;group_prices&lt;/span&gt;&lt;/b&gt;&lt;/p&gt;" style="rounded=0;whiteSpace=wrap;html=1;" parent="WIyWlLk6GJQsqaUBKTNV-1" vertex="1">
          <mxGeometry x="520" y="1480" width="120" height="40" as="geometry" />
        </mxCell>
        <mxCell id="gBkaTlMZyXjPs890hYN8-39" value="&lt;p class=&quot;MsoNormal&quot;&gt;&lt;b&gt;&lt;span style=&quot;font-family: &amp;quot;Times New Roman&amp;quot;; color: rgb(255, 0, 0);&quot;&gt;productextends&lt;/span&gt;&lt;/b&gt;&lt;/p&gt;" style="rounded=0;whiteSpace=wrap;html=1;" parent="WIyWlLk6GJQsqaUBKTNV-1" vertex="1">
          <mxGeometry x="40" y="760" width="120" height="40" as="geometry" />
        </mxCell>
        <mxCell id="gBkaTlMZyXjPs890hYN8-40" value="&lt;p class=&quot;MsoNormal&quot;&gt;&lt;b&gt;&lt;span style=&quot;mso-spacerun:&#39;yes&#39;;font-family:&#39;Times New Roman&#39;;color:rgb(255,0,0);&#xa;font-weight:bold;font-size:13,0000pt;&quot;&gt;order_details&lt;/span&gt;&lt;/b&gt;&lt;/p&gt;" style="rounded=0;whiteSpace=wrap;html=1;" parent="WIyWlLk6GJQsqaUBKTNV-1" vertex="1">
          <mxGeometry x="480" y="680" width="120" height="40" as="geometry" />
        </mxCell>
        <mxCell id="gBkaTlMZyXjPs890hYN8-41" value="&lt;p class=&quot;MsoNormal&quot;&gt;&lt;b&gt;&lt;span style=&quot;font-family: &amp;quot;Times New Roman&amp;quot;; color: rgb(255, 0, 0);&quot;&gt;payment_trans&lt;/span&gt;&lt;/b&gt;&lt;/p&gt;" style="rounded=0;whiteSpace=wrap;html=1;" parent="WIyWlLk6GJQsqaUBKTNV-1" vertex="1">
          <mxGeometry x="640" y="760" width="120" height="40" as="geometry" />
        </mxCell>
        <mxCell id="gBkaTlMZyXjPs890hYN8-42" value="&lt;p class=&quot;MsoNormal&quot;&gt;&lt;b&gt;&lt;span style=&quot;font-family: &amp;quot;Times New Roman&amp;quot;; color: rgb(255, 0, 0);&quot;&gt;roles&lt;/span&gt;&lt;/b&gt;&lt;/p&gt;" style="rounded=0;whiteSpace=wrap;html=1;" parent="WIyWlLk6GJQsqaUBKTNV-1" vertex="1">
          <mxGeometry x="200" y="1320" width="120" height="40" as="geometry" />
        </mxCell>
        <mxCell id="gBkaTlMZyXjPs890hYN8-43" value="&lt;p class=&quot;MsoNormal&quot;&gt;&lt;b&gt;&lt;span style=&quot;font-family: &amp;quot;Times New Roman&amp;quot;; color: rgb(255, 0, 0);&quot;&gt;products&lt;/span&gt;&lt;/b&gt;&lt;/p&gt;" style="rounded=0;whiteSpace=wrap;html=1;" parent="WIyWlLk6GJQsqaUBKTNV-1" vertex="1">
          <mxGeometry x="240" y="680" width="120" height="40" as="geometry" />
        </mxCell>
        <mxCell id="gBkaTlMZyXjPs890hYN8-44" value="&lt;p class=&quot;MsoNormal&quot;&gt;&lt;b&gt;&lt;span style=&quot;font-family: &amp;quot;Times New Roman&amp;quot;; color: rgb(255, 0, 0);&quot;&gt;order_trans&lt;/span&gt;&lt;/b&gt;&lt;/p&gt;" style="rounded=0;whiteSpace=wrap;html=1;" parent="WIyWlLk6GJQsqaUBKTNV-1" vertex="1">
          <mxGeometry x="440" y="840" width="120" height="40" as="geometry" />
        </mxCell>
        <mxCell id="gBkaTlMZyXjPs890hYN8-45" value="&lt;p class=&quot;MsoNormal&quot;&gt;&lt;b&gt;&lt;span style=&quot;font-family: &amp;quot;Times New Roman&amp;quot;; color: rgb(255, 0, 0);&quot;&gt;role_functions&lt;/span&gt;&lt;/b&gt;&lt;/p&gt;" style="rounded=0;whiteSpace=wrap;html=1;" parent="WIyWlLk6GJQsqaUBKTNV-1" vertex="1">
          <mxGeometry x="200" y="1480" width="120" height="40" as="geometry" />
        </mxCell>
        <mxCell id="gBkaTlMZyXjPs890hYN8-46" value="&lt;p class=&quot;MsoNormal&quot;&gt;&lt;b&gt;&lt;span style=&quot;font-family: &amp;quot;Times New Roman&amp;quot;; color: rgb(255, 0, 0);&quot;&gt;services&lt;/span&gt;&lt;/b&gt;&lt;/p&gt;" style="rounded=0;whiteSpace=wrap;html=1;" parent="WIyWlLk6GJQsqaUBKTNV-1" vertex="1">
          <mxGeometry x="40" y="1320" width="120" height="40" as="geometry" />
        </mxCell>
        <mxCell id="gBkaTlMZyXjPs890hYN8-47" value="&lt;p class=&quot;MsoNormal&quot;&gt;&lt;b&gt;&lt;span style=&quot;font-family: &amp;quot;Times New Roman&amp;quot;; color: rgb(255, 0, 0);&quot;&gt;orders&lt;/span&gt;&lt;/b&gt;&lt;/p&gt;" style="rounded=0;whiteSpace=wrap;html=1;" parent="WIyWlLk6GJQsqaUBKTNV-1" vertex="1">
          <mxGeometry x="640" y="600" width="120" height="40" as="geometry" />
        </mxCell>
        <mxCell id="gBkaTlMZyXjPs890hYN8-48" value="&lt;p class=&quot;MsoNormal&quot;&gt;&lt;b&gt;&lt;span style=&quot;font-family: &amp;quot;Times New Roman&amp;quot;; color: rgb(255, 0, 0);&quot;&gt;setting_details&lt;/span&gt;&lt;/b&gt;&lt;/p&gt;" style="rounded=0;whiteSpace=wrap;html=1;" parent="WIyWlLk6GJQsqaUBKTNV-1" vertex="1">
          <mxGeometry x="200" y="1560" width="120" height="40" as="geometry" />
        </mxCell>
        <mxCell id="gBkaTlMZyXjPs890hYN8-49" value="&lt;p class=&quot;MsoNormal&quot;&gt;&lt;b&gt;&lt;span style=&quot;font-family: &amp;quot;Times New Roman&amp;quot;; color: rgb(255, 0, 0);&quot;&gt;tags&lt;/span&gt;&lt;/b&gt;&lt;/p&gt;" style="rounded=0;whiteSpace=wrap;html=1;" parent="WIyWlLk6GJQsqaUBKTNV-1" vertex="1">
          <mxGeometry x="40" y="1400" width="120" height="40" as="geometry" />
        </mxCell>
        <mxCell id="gBkaTlMZyXjPs890hYN8-50" value="&lt;p class=&quot;MsoNormal&quot;&gt;&lt;b&gt;&lt;span style=&quot;font-family: &amp;quot;Times New Roman&amp;quot;; color: rgb(255, 0, 0);&quot;&gt;tag_blogs&lt;/span&gt;&lt;/b&gt;&lt;/p&gt;" style="rounded=0;whiteSpace=wrap;html=1;" parent="WIyWlLk6GJQsqaUBKTNV-1" vertex="1">
          <mxGeometry x="200" y="1400" width="120" height="40" as="geometry" />
        </mxCell>
        <mxCell id="gBkaTlMZyXjPs890hYN8-51" value="&lt;p class=&quot;MsoNormal&quot;&gt;&lt;b&gt;&lt;span style=&quot;font-family: &amp;quot;Times New Roman&amp;quot;; color: rgb(255, 0, 0);&quot;&gt;tag_products&lt;/span&gt;&lt;/b&gt;&lt;/p&gt;" style="rounded=0;whiteSpace=wrap;html=1;" parent="WIyWlLk6GJQsqaUBKTNV-1" vertex="1">
          <mxGeometry x="40" y="1480" width="120" height="40" as="geometry" />
        </mxCell>
        <mxCell id="gBkaTlMZyXjPs890hYN8-52" value="&lt;p class=&quot;MsoNormal&quot;&gt;&lt;b&gt;&lt;span style=&quot;font-family: &amp;quot;Times New Roman&amp;quot;; color: rgb(255, 0, 0);&quot;&gt;themesettings&lt;/span&gt;&lt;/b&gt;&lt;/p&gt;" style="rounded=0;whiteSpace=wrap;html=1;" parent="WIyWlLk6GJQsqaUBKTNV-1" vertex="1">
          <mxGeometry x="40" y="1560" width="120" height="40" as="geometry" />
        </mxCell>
        <mxCell id="gBkaTlMZyXjPs890hYN8-53" value="&lt;p class=&quot;MsoNormal&quot;&gt;&lt;b&gt;&lt;span style=&quot;font-family: &amp;quot;Times New Roman&amp;quot;; color: rgb(255, 0, 0);&quot;&gt;users&lt;/span&gt;&lt;/b&gt;&lt;/p&gt;" style="rounded=0;whiteSpace=wrap;html=1;" parent="WIyWlLk6GJQsqaUBKTNV-1" vertex="1">
          <mxGeometry x="370" y="550" width="120" height="40" as="geometry" />
        </mxCell>
        <mxCell id="gBkaTlMZyXjPs890hYN8-54" value="&lt;p class=&quot;MsoNormal&quot;&gt;&lt;b&gt;&lt;span style=&quot;font-family: &amp;quot;Times New Roman&amp;quot;; color: rgb(255, 0, 0);&quot;&gt;user_settings&lt;/span&gt;&lt;/b&gt;&lt;/p&gt;" style="rounded=0;whiteSpace=wrap;html=1;" parent="WIyWlLk6GJQsqaUBKTNV-1" vertex="1">
          <mxGeometry x="40" y="1240" width="120" height="40" as="geometry" />
        </mxCell>
        <mxCell id="gBkaTlMZyXjPs890hYN8-55" value="&lt;p class=&quot;MsoNormal&quot;&gt;&lt;b&gt;&lt;span style=&quot;font-family: &amp;quot;Times New Roman&amp;quot;; color: rgb(255, 0, 0);&quot;&gt;u_groups&lt;/span&gt;&lt;/b&gt;&lt;/p&gt;" style="rounded=0;whiteSpace=wrap;html=1;" parent="WIyWlLk6GJQsqaUBKTNV-1" vertex="1">
          <mxGeometry x="520" y="1320" width="120" height="40" as="geometry" />
        </mxCell>
        <mxCell id="gBkaTlMZyXjPs890hYN8-56" value="&lt;p class=&quot;MsoNormal&quot;&gt;&lt;b&gt;&lt;span style=&quot;font-family: &amp;quot;Times New Roman&amp;quot;; color: rgb(255, 0, 0);&quot;&gt;wishlists&lt;/span&gt;&lt;/b&gt;&lt;/p&gt;" style="rounded=0;whiteSpace=wrap;html=1;" parent="WIyWlLk6GJQsqaUBKTNV-1" vertex="1">
          <mxGeometry x="520" y="1400" width="120" height="40" as="geometry" />
        </mxCell>
        <mxCell id="gBkaTlMZyXjPs890hYN8-57" value="" style="edgeStyle=entityRelationEdgeStyle;fontSize=12;html=1;endArrow=ERoneToMany;rounded=0;exitX=1;exitY=0.5;exitDx=0;exitDy=0;entryX=0;entryY=0.5;entryDx=0;entryDy=0;" parent="WIyWlLk6GJQsqaUBKTNV-1" source="gBkaTlMZyXjPs890hYN8-53" target="gBkaTlMZyXjPs890hYN8-47" edge="1">
          <mxGeometry width="100" height="100" relative="1" as="geometry">
            <mxPoint x="350" y="850" as="sourcePoint" />
            <mxPoint x="450" y="750" as="targetPoint" />
          </mxGeometry>
        </mxCell>
        <mxCell id="6bboUvxhJOjyhjbCAO4z-1" value="" style="edgeStyle=entityRelationEdgeStyle;fontSize=12;html=1;endArrow=ERoneToMany;rounded=0;exitX=0;exitY=0.5;exitDx=0;exitDy=0;entryX=1;entryY=0.5;entryDx=0;entryDy=0;" parent="WIyWlLk6GJQsqaUBKTNV-1" source="gBkaTlMZyXjPs890hYN8-53" target="gBkaTlMZyXjPs890hYN8-29" edge="1">
          <mxGeometry width="100" height="100" relative="1" as="geometry">
            <mxPoint x="500" y="580" as="sourcePoint" />
            <mxPoint x="700" y="660" as="targetPoint" />
            <Array as="points">
              <mxPoint x="500" y="640" />
            </Array>
          </mxGeometry>
        </mxCell>
        <mxCell id="6bboUvxhJOjyhjbCAO4z-2" value="" style="edgeStyle=entityRelationEdgeStyle;fontSize=12;html=1;endArrow=ERoneToMany;rounded=0;exitX=0.5;exitY=1;exitDx=0;exitDy=0;" parent="WIyWlLk6GJQsqaUBKTNV-1" source="gBkaTlMZyXjPs890hYN8-47" target="gBkaTlMZyXjPs890hYN8-40" edge="1">
          <mxGeometry width="100" height="100" relative="1" as="geometry">
            <mxPoint x="350" y="820" as="sourcePoint" />
            <mxPoint x="450" y="720" as="targetPoint" />
          </mxGeometry>
        </mxCell>
        <mxCell id="6bboUvxhJOjyhjbCAO4z-3" value="" style="edgeStyle=entityRelationEdgeStyle;fontSize=12;html=1;endArrow=ERmany;startArrow=ERmany;rounded=0;entryX=1;entryY=0.5;entryDx=0;entryDy=0;exitX=1;exitY=0.5;exitDx=0;exitDy=0;" parent="WIyWlLk6GJQsqaUBKTNV-1" source="gBkaTlMZyXjPs890hYN8-41" target="gBkaTlMZyXjPs890hYN8-47" edge="1">
          <mxGeometry width="100" height="100" relative="1" as="geometry">
            <mxPoint x="350" y="820" as="sourcePoint" />
            <mxPoint x="450" y="720" as="targetPoint" />
          </mxGeometry>
        </mxCell>
        <mxCell id="6bboUvxhJOjyhjbCAO4z-4" value="" style="edgeStyle=entityRelationEdgeStyle;fontSize=12;html=1;endArrow=ERoneToMany;rounded=0;exitX=0;exitY=0.5;exitDx=0;exitDy=0;" parent="WIyWlLk6GJQsqaUBKTNV-1" source="gBkaTlMZyXjPs890hYN8-43" target="gBkaTlMZyXjPs890hYN8-39" edge="1">
          <mxGeometry width="100" height="100" relative="1" as="geometry">
            <mxPoint x="350" y="820" as="sourcePoint" />
            <mxPoint x="450" y="720" as="targetPoint" />
          </mxGeometry>
        </mxCell>
        <mxCell id="6bboUvxhJOjyhjbCAO4z-5" value="" style="edgeStyle=entityRelationEdgeStyle;fontSize=12;html=1;endArrow=ERzeroToMany;startArrow=ERmandOne;rounded=0;entryX=0;entryY=0.5;entryDx=0;entryDy=0;exitX=1;exitY=0.5;exitDx=0;exitDy=0;" parent="WIyWlLk6GJQsqaUBKTNV-1" source="gBkaTlMZyXjPs890hYN8-44" target="gBkaTlMZyXjPs890hYN8-41" edge="1">
          <mxGeometry width="100" height="100" relative="1" as="geometry">
            <mxPoint x="700" y="900" as="sourcePoint" />
            <mxPoint x="440" y="720" as="targetPoint" />
          </mxGeometry>
        </mxCell>
        <mxCell id="6bboUvxhJOjyhjbCAO4z-6" value="" style="edgeStyle=entityRelationEdgeStyle;fontSize=12;html=1;endArrow=ERmany;startArrow=ERmany;rounded=0;entryX=1;entryY=0.5;entryDx=0;entryDy=0;exitX=1;exitY=0.5;exitDx=0;exitDy=0;" parent="WIyWlLk6GJQsqaUBKTNV-1" source="gBkaTlMZyXjPs890hYN8-37" target="gBkaTlMZyXjPs890hYN8-43" edge="1">
          <mxGeometry width="100" height="100" relative="1" as="geometry">
            <mxPoint x="340" y="820" as="sourcePoint" />
            <mxPoint x="440" y="720" as="targetPoint" />
          </mxGeometry>
        </mxCell>
      </root>
    </mxGraphModel>
  </diagram>
  <diagram id="ZJ2LCPAkTYoGAWcKZPMH" name="BDF">
    <mxGraphModel dx="1050" dy="557" grid="1" gridSize="10" guides="1" tooltips="1" connect="1" arrows="1" fold="1" page="1" pageScale="1" pageWidth="850" pageHeight="1100" math="0" shadow="0">
      <root>
        <mxCell id="0" />
        <mxCell id="1" parent="0" />
        <mxCell id="AcmG8XuYJRlxv205h2Om-1" style="edgeStyle=orthogonalEdgeStyle;rounded=0;orthogonalLoop=1;jettySize=auto;html=1;entryX=0.5;entryY=0;entryDx=0;entryDy=0;exitX=0.5;exitY=1;exitDx=0;exitDy=0;" edge="1" parent="1" source="AcmG8XuYJRlxv205h2Om-2" target="AcmG8XuYJRlxv205h2Om-4">
          <mxGeometry relative="1" as="geometry">
            <Array as="points">
              <mxPoint x="520" y="120" />
              <mxPoint x="80" y="120" />
            </Array>
          </mxGeometry>
        </mxCell>
        <mxCell id="AcmG8XuYJRlxv205h2Om-2" value="&lt;b&gt;&lt;font style=&quot;font-size: 20px;&quot;&gt;Hệ thống website bán hàng&lt;/font&gt;&lt;/b&gt;" style="rounded=0;whiteSpace=wrap;html=1;" vertex="1" parent="1">
          <mxGeometry x="360" y="20" width="320" height="60" as="geometry" />
        </mxCell>
        <mxCell id="AcmG8XuYJRlxv205h2Om-3" style="edgeStyle=orthogonalEdgeStyle;rounded=0;orthogonalLoop=1;jettySize=auto;html=1;exitX=0;exitY=0.5;exitDx=0;exitDy=0;entryX=0;entryY=0.5;entryDx=0;entryDy=0;" edge="1" parent="1" source="AcmG8XuYJRlxv205h2Om-4" target="AcmG8XuYJRlxv205h2Om-42">
          <mxGeometry relative="1" as="geometry" />
        </mxCell>
        <mxCell id="AcmG8XuYJRlxv205h2Om-4" value="Quản lí sản phẩm" style="rounded=0;whiteSpace=wrap;html=1;" vertex="1" parent="1">
          <mxGeometry x="40" y="160" width="80" height="40" as="geometry" />
        </mxCell>
        <mxCell id="AcmG8XuYJRlxv205h2Om-5" style="edgeStyle=orthogonalEdgeStyle;rounded=0;orthogonalLoop=1;jettySize=auto;html=1;exitX=0.5;exitY=1;exitDx=0;exitDy=0;" edge="1" parent="1" source="AcmG8XuYJRlxv205h2Om-2" target="AcmG8XuYJRlxv205h2Om-2">
          <mxGeometry relative="1" as="geometry" />
        </mxCell>
        <mxCell id="AcmG8XuYJRlxv205h2Om-6" style="edgeStyle=orthogonalEdgeStyle;rounded=0;orthogonalLoop=1;jettySize=auto;html=1;entryX=0.5;entryY=0;entryDx=0;entryDy=0;" edge="1" parent="1" target="AcmG8XuYJRlxv205h2Om-11">
          <mxGeometry relative="1" as="geometry">
            <mxPoint x="520" y="80" as="sourcePoint" />
            <mxPoint x="160" y="130" as="targetPoint" />
            <Array as="points">
              <mxPoint x="520" y="120" />
              <mxPoint x="200" y="120" />
            </Array>
          </mxGeometry>
        </mxCell>
        <mxCell id="AcmG8XuYJRlxv205h2Om-7" style="edgeStyle=orthogonalEdgeStyle;rounded=0;orthogonalLoop=1;jettySize=auto;html=1;exitX=0;exitY=0.5;exitDx=0;exitDy=0;entryX=0;entryY=0.5;entryDx=0;entryDy=0;" edge="1" parent="1" source="AcmG8XuYJRlxv205h2Om-11" target="AcmG8XuYJRlxv205h2Om-52">
          <mxGeometry relative="1" as="geometry" />
        </mxCell>
        <mxCell id="AcmG8XuYJRlxv205h2Om-8" style="edgeStyle=orthogonalEdgeStyle;rounded=0;orthogonalLoop=1;jettySize=auto;html=1;exitX=0;exitY=0.5;exitDx=0;exitDy=0;entryX=0;entryY=0.5;entryDx=0;entryDy=0;" edge="1" parent="1" source="AcmG8XuYJRlxv205h2Om-11" target="AcmG8XuYJRlxv205h2Om-49">
          <mxGeometry relative="1" as="geometry" />
        </mxCell>
        <mxCell id="AcmG8XuYJRlxv205h2Om-9" style="edgeStyle=orthogonalEdgeStyle;rounded=0;orthogonalLoop=1;jettySize=auto;html=1;exitX=0;exitY=0.5;exitDx=0;exitDy=0;entryX=0;entryY=0.5;entryDx=0;entryDy=0;" edge="1" parent="1" source="AcmG8XuYJRlxv205h2Om-11" target="AcmG8XuYJRlxv205h2Om-50">
          <mxGeometry relative="1" as="geometry" />
        </mxCell>
        <mxCell id="AcmG8XuYJRlxv205h2Om-10" style="edgeStyle=orthogonalEdgeStyle;rounded=0;orthogonalLoop=1;jettySize=auto;html=1;exitX=0;exitY=0.5;exitDx=0;exitDy=0;entryX=0;entryY=0.5;entryDx=0;entryDy=0;" edge="1" parent="1" source="AcmG8XuYJRlxv205h2Om-11" target="AcmG8XuYJRlxv205h2Om-51">
          <mxGeometry relative="1" as="geometry" />
        </mxCell>
        <mxCell id="AcmG8XuYJRlxv205h2Om-11" value="Quản lí đơn hàng" style="rounded=0;whiteSpace=wrap;html=1;" vertex="1" parent="1">
          <mxGeometry x="160" y="160" width="80" height="40" as="geometry" />
        </mxCell>
        <mxCell id="AcmG8XuYJRlxv205h2Om-12" style="edgeStyle=orthogonalEdgeStyle;rounded=0;orthogonalLoop=1;jettySize=auto;html=1;exitX=0.5;exitY=1;exitDx=0;exitDy=0;entryX=0.5;entryY=0;entryDx=0;entryDy=0;" edge="1" parent="1" source="AcmG8XuYJRlxv205h2Om-2" target="AcmG8XuYJRlxv205h2Om-17">
          <mxGeometry relative="1" as="geometry">
            <mxPoint x="290" y="50" as="targetPoint" />
          </mxGeometry>
        </mxCell>
        <mxCell id="AcmG8XuYJRlxv205h2Om-13" style="edgeStyle=orthogonalEdgeStyle;rounded=0;orthogonalLoop=1;jettySize=auto;html=1;exitX=0;exitY=0.5;exitDx=0;exitDy=0;entryX=0;entryY=0.5;entryDx=0;entryDy=0;" edge="1" parent="1" source="AcmG8XuYJRlxv205h2Om-17" target="AcmG8XuYJRlxv205h2Om-53">
          <mxGeometry relative="1" as="geometry" />
        </mxCell>
        <mxCell id="AcmG8XuYJRlxv205h2Om-14" style="edgeStyle=orthogonalEdgeStyle;rounded=0;orthogonalLoop=1;jettySize=auto;html=1;exitX=0;exitY=0.5;exitDx=0;exitDy=0;entryX=0;entryY=0.5;entryDx=0;entryDy=0;" edge="1" parent="1" source="AcmG8XuYJRlxv205h2Om-17" target="AcmG8XuYJRlxv205h2Om-54">
          <mxGeometry relative="1" as="geometry" />
        </mxCell>
        <mxCell id="AcmG8XuYJRlxv205h2Om-15" style="edgeStyle=orthogonalEdgeStyle;rounded=0;orthogonalLoop=1;jettySize=auto;html=1;exitX=0;exitY=0.5;exitDx=0;exitDy=0;entryX=0;entryY=0.5;entryDx=0;entryDy=0;" edge="1" parent="1" source="AcmG8XuYJRlxv205h2Om-17" target="AcmG8XuYJRlxv205h2Om-55">
          <mxGeometry relative="1" as="geometry" />
        </mxCell>
        <mxCell id="AcmG8XuYJRlxv205h2Om-16" style="edgeStyle=orthogonalEdgeStyle;rounded=0;orthogonalLoop=1;jettySize=auto;html=1;exitX=0;exitY=0.5;exitDx=0;exitDy=0;entryX=0;entryY=0.5;entryDx=0;entryDy=0;" edge="1" parent="1" source="AcmG8XuYJRlxv205h2Om-17" target="AcmG8XuYJRlxv205h2Om-56">
          <mxGeometry relative="1" as="geometry" />
        </mxCell>
        <mxCell id="AcmG8XuYJRlxv205h2Om-17" value="Quản lí người dùng" style="rounded=0;whiteSpace=wrap;html=1;" vertex="1" parent="1">
          <mxGeometry x="280" y="160" width="80" height="40" as="geometry" />
        </mxCell>
        <mxCell id="AcmG8XuYJRlxv205h2Om-18" style="edgeStyle=orthogonalEdgeStyle;rounded=0;orthogonalLoop=1;jettySize=auto;html=1;exitX=0.5;exitY=1;exitDx=0;exitDy=0;entryX=0.416;entryY=0.085;entryDx=0;entryDy=0;entryPerimeter=0;" edge="1" parent="1" source="AcmG8XuYJRlxv205h2Om-2" target="AcmG8XuYJRlxv205h2Om-23">
          <mxGeometry relative="1" as="geometry">
            <mxPoint x="430" y="140" as="targetPoint" />
            <Array as="points">
              <mxPoint x="520" y="120" />
              <mxPoint x="437" y="120" />
            </Array>
          </mxGeometry>
        </mxCell>
        <mxCell id="AcmG8XuYJRlxv205h2Om-19" style="edgeStyle=orthogonalEdgeStyle;rounded=0;orthogonalLoop=1;jettySize=auto;html=1;exitX=0;exitY=0.5;exitDx=0;exitDy=0;entryX=0;entryY=0.5;entryDx=0;entryDy=0;" edge="1" parent="1" source="AcmG8XuYJRlxv205h2Om-23" target="AcmG8XuYJRlxv205h2Om-57">
          <mxGeometry relative="1" as="geometry" />
        </mxCell>
        <mxCell id="AcmG8XuYJRlxv205h2Om-20" style="edgeStyle=orthogonalEdgeStyle;rounded=0;orthogonalLoop=1;jettySize=auto;html=1;exitX=0;exitY=0.5;exitDx=0;exitDy=0;entryX=0;entryY=0.5;entryDx=0;entryDy=0;" edge="1" parent="1" source="AcmG8XuYJRlxv205h2Om-23" target="AcmG8XuYJRlxv205h2Om-58">
          <mxGeometry relative="1" as="geometry" />
        </mxCell>
        <mxCell id="AcmG8XuYJRlxv205h2Om-21" style="edgeStyle=orthogonalEdgeStyle;rounded=0;orthogonalLoop=1;jettySize=auto;html=1;exitX=0;exitY=0.5;exitDx=0;exitDy=0;entryX=0;entryY=0.5;entryDx=0;entryDy=0;" edge="1" parent="1" source="AcmG8XuYJRlxv205h2Om-23" target="AcmG8XuYJRlxv205h2Om-59">
          <mxGeometry relative="1" as="geometry" />
        </mxCell>
        <mxCell id="AcmG8XuYJRlxv205h2Om-22" style="edgeStyle=orthogonalEdgeStyle;rounded=0;orthogonalLoop=1;jettySize=auto;html=1;exitX=0;exitY=0.5;exitDx=0;exitDy=0;entryX=0;entryY=0.5;entryDx=0;entryDy=0;" edge="1" parent="1" source="AcmG8XuYJRlxv205h2Om-23" target="AcmG8XuYJRlxv205h2Om-60">
          <mxGeometry relative="1" as="geometry" />
        </mxCell>
        <mxCell id="AcmG8XuYJRlxv205h2Om-23" value="Quản lí giỏ hàng" style="rounded=0;whiteSpace=wrap;html=1;" vertex="1" parent="1">
          <mxGeometry x="400" y="160" width="90" height="40" as="geometry" />
        </mxCell>
        <mxCell id="AcmG8XuYJRlxv205h2Om-24" style="edgeStyle=orthogonalEdgeStyle;rounded=0;orthogonalLoop=1;jettySize=auto;html=1;entryX=0.5;entryY=0;entryDx=0;entryDy=0;" edge="1" parent="1" target="AcmG8XuYJRlxv205h2Om-27">
          <mxGeometry relative="1" as="geometry">
            <mxPoint x="690" y="110" as="targetPoint" />
            <mxPoint x="520" y="80" as="sourcePoint" />
          </mxGeometry>
        </mxCell>
        <mxCell id="AcmG8XuYJRlxv205h2Om-25" style="edgeStyle=orthogonalEdgeStyle;rounded=0;orthogonalLoop=1;jettySize=auto;html=1;exitX=0;exitY=0.5;exitDx=0;exitDy=0;entryX=0;entryY=0.5;entryDx=0;entryDy=0;" edge="1" parent="1" source="AcmG8XuYJRlxv205h2Om-27" target="AcmG8XuYJRlxv205h2Om-61">
          <mxGeometry relative="1" as="geometry" />
        </mxCell>
        <mxCell id="AcmG8XuYJRlxv205h2Om-26" style="edgeStyle=orthogonalEdgeStyle;rounded=0;orthogonalLoop=1;jettySize=auto;html=1;exitX=0;exitY=0.5;exitDx=0;exitDy=0;entryX=0;entryY=0.5;entryDx=0;entryDy=0;" edge="1" parent="1" source="AcmG8XuYJRlxv205h2Om-27" target="AcmG8XuYJRlxv205h2Om-62">
          <mxGeometry relative="1" as="geometry" />
        </mxCell>
        <mxCell id="AcmG8XuYJRlxv205h2Om-27" value="Quản lí thanh toán" style="rounded=0;whiteSpace=wrap;html=1;" vertex="1" parent="1">
          <mxGeometry x="520" y="160" width="80" height="40" as="geometry" />
        </mxCell>
        <mxCell id="AcmG8XuYJRlxv205h2Om-28" style="edgeStyle=orthogonalEdgeStyle;rounded=0;orthogonalLoop=1;jettySize=auto;html=1;exitX=0.5;exitY=1;exitDx=0;exitDy=0;entryX=0.5;entryY=0;entryDx=0;entryDy=0;" edge="1" parent="1" source="AcmG8XuYJRlxv205h2Om-2" target="AcmG8XuYJRlxv205h2Om-32">
          <mxGeometry relative="1" as="geometry">
            <mxPoint x="610" y="110" as="targetPoint" />
          </mxGeometry>
        </mxCell>
        <mxCell id="AcmG8XuYJRlxv205h2Om-29" style="edgeStyle=orthogonalEdgeStyle;rounded=0;orthogonalLoop=1;jettySize=auto;html=1;exitX=0;exitY=0.5;exitDx=0;exitDy=0;entryX=0;entryY=0.5;entryDx=0;entryDy=0;" edge="1" parent="1" source="AcmG8XuYJRlxv205h2Om-32" target="AcmG8XuYJRlxv205h2Om-63">
          <mxGeometry relative="1" as="geometry" />
        </mxCell>
        <mxCell id="AcmG8XuYJRlxv205h2Om-30" style="edgeStyle=orthogonalEdgeStyle;rounded=0;orthogonalLoop=1;jettySize=auto;html=1;exitX=0;exitY=0.5;exitDx=0;exitDy=0;entryX=0;entryY=0.5;entryDx=0;entryDy=0;" edge="1" parent="1" source="AcmG8XuYJRlxv205h2Om-32" target="AcmG8XuYJRlxv205h2Om-64">
          <mxGeometry relative="1" as="geometry" />
        </mxCell>
        <mxCell id="AcmG8XuYJRlxv205h2Om-31" style="edgeStyle=orthogonalEdgeStyle;rounded=0;orthogonalLoop=1;jettySize=auto;html=1;exitX=0;exitY=0.5;exitDx=0;exitDy=0;entryX=0;entryY=0.5;entryDx=0;entryDy=0;" edge="1" parent="1" source="AcmG8XuYJRlxv205h2Om-32" target="AcmG8XuYJRlxv205h2Om-65">
          <mxGeometry relative="1" as="geometry" />
        </mxCell>
        <mxCell id="AcmG8XuYJRlxv205h2Om-32" value="Quản lí giao dịch" style="rounded=0;whiteSpace=wrap;html=1;" vertex="1" parent="1">
          <mxGeometry x="640" y="160" width="80" height="40" as="geometry" />
        </mxCell>
        <mxCell id="AcmG8XuYJRlxv205h2Om-33" style="edgeStyle=orthogonalEdgeStyle;rounded=0;orthogonalLoop=1;jettySize=auto;html=1;entryX=0.5;entryY=0;entryDx=0;entryDy=0;" edge="1" parent="1" target="AcmG8XuYJRlxv205h2Om-41">
          <mxGeometry relative="1" as="geometry">
            <mxPoint x="920.294117647059" y="30" as="targetPoint" />
            <mxPoint x="520" y="80" as="sourcePoint" />
            <Array as="points">
              <mxPoint x="520" y="120" />
              <mxPoint x="920" y="120" />
            </Array>
          </mxGeometry>
        </mxCell>
        <mxCell id="AcmG8XuYJRlxv205h2Om-34" style="edgeStyle=orthogonalEdgeStyle;rounded=0;orthogonalLoop=1;jettySize=auto;html=1;exitX=0;exitY=0.5;exitDx=0;exitDy=0;entryX=0;entryY=0.5;entryDx=0;entryDy=0;" edge="1" parent="1" source="AcmG8XuYJRlxv205h2Om-41" target="AcmG8XuYJRlxv205h2Om-66">
          <mxGeometry relative="1" as="geometry" />
        </mxCell>
        <mxCell id="AcmG8XuYJRlxv205h2Om-35" style="edgeStyle=orthogonalEdgeStyle;rounded=0;orthogonalLoop=1;jettySize=auto;html=1;exitX=0;exitY=0.5;exitDx=0;exitDy=0;entryX=0;entryY=0.5;entryDx=0;entryDy=0;" edge="1" parent="1" source="AcmG8XuYJRlxv205h2Om-41" target="AcmG8XuYJRlxv205h2Om-67">
          <mxGeometry relative="1" as="geometry" />
        </mxCell>
        <mxCell id="AcmG8XuYJRlxv205h2Om-36" style="edgeStyle=orthogonalEdgeStyle;rounded=0;orthogonalLoop=1;jettySize=auto;html=1;exitX=0;exitY=0.5;exitDx=0;exitDy=0;entryX=0;entryY=0.5;entryDx=0;entryDy=0;" edge="1" parent="1" source="AcmG8XuYJRlxv205h2Om-41" target="AcmG8XuYJRlxv205h2Om-68">
          <mxGeometry relative="1" as="geometry" />
        </mxCell>
        <mxCell id="AcmG8XuYJRlxv205h2Om-37" style="edgeStyle=orthogonalEdgeStyle;rounded=0;orthogonalLoop=1;jettySize=auto;html=1;exitX=0;exitY=0.5;exitDx=0;exitDy=0;entryX=0;entryY=0.5;entryDx=0;entryDy=0;" edge="1" parent="1" source="AcmG8XuYJRlxv205h2Om-41" target="AcmG8XuYJRlxv205h2Om-69">
          <mxGeometry relative="1" as="geometry" />
        </mxCell>
        <mxCell id="AcmG8XuYJRlxv205h2Om-38" style="edgeStyle=orthogonalEdgeStyle;rounded=0;orthogonalLoop=1;jettySize=auto;html=1;exitX=0;exitY=0.5;exitDx=0;exitDy=0;entryX=0;entryY=0.5;entryDx=0;entryDy=0;" edge="1" parent="1" source="AcmG8XuYJRlxv205h2Om-41" target="AcmG8XuYJRlxv205h2Om-70">
          <mxGeometry relative="1" as="geometry" />
        </mxCell>
        <mxCell id="AcmG8XuYJRlxv205h2Om-39" style="edgeStyle=orthogonalEdgeStyle;rounded=0;orthogonalLoop=1;jettySize=auto;html=1;exitX=0;exitY=0.5;exitDx=0;exitDy=0;entryX=0;entryY=0.5;entryDx=0;entryDy=0;" edge="1" parent="1" source="AcmG8XuYJRlxv205h2Om-41" target="AcmG8XuYJRlxv205h2Om-71">
          <mxGeometry relative="1" as="geometry" />
        </mxCell>
        <mxCell id="AcmG8XuYJRlxv205h2Om-40" style="edgeStyle=orthogonalEdgeStyle;rounded=0;orthogonalLoop=1;jettySize=auto;html=1;exitX=0;exitY=0.5;exitDx=0;exitDy=0;entryX=0;entryY=0.5;entryDx=0;entryDy=0;" edge="1" parent="1" source="AcmG8XuYJRlxv205h2Om-41" target="AcmG8XuYJRlxv205h2Om-80">
          <mxGeometry relative="1" as="geometry" />
        </mxCell>
        <mxCell id="AcmG8XuYJRlxv205h2Om-41" value="Quản lí khác" style="rounded=0;whiteSpace=wrap;html=1;" vertex="1" parent="1">
          <mxGeometry x="880" y="160" width="80" height="40" as="geometry" />
        </mxCell>
        <mxCell id="AcmG8XuYJRlxv205h2Om-42" value="Thêm sản phẩm" style="rounded=0;whiteSpace=wrap;html=1;" vertex="1" parent="1">
          <mxGeometry x="40" y="240" width="80" height="40" as="geometry" />
        </mxCell>
        <mxCell id="AcmG8XuYJRlxv205h2Om-43" style="edgeStyle=orthogonalEdgeStyle;rounded=0;orthogonalLoop=1;jettySize=auto;html=1;exitX=0;exitY=0.5;exitDx=0;exitDy=0;entryX=0;entryY=0.5;entryDx=0;entryDy=0;" edge="1" parent="1" source="AcmG8XuYJRlxv205h2Om-4" target="AcmG8XuYJRlxv205h2Om-44">
          <mxGeometry relative="1" as="geometry">
            <mxPoint x="80" y="290" as="targetPoint" />
            <mxPoint x="70" y="390" as="sourcePoint" />
          </mxGeometry>
        </mxCell>
        <mxCell id="AcmG8XuYJRlxv205h2Om-44" value="Sửa sản phẩm" style="rounded=0;whiteSpace=wrap;html=1;" vertex="1" parent="1">
          <mxGeometry x="40" y="320" width="80" height="40" as="geometry" />
        </mxCell>
        <mxCell id="AcmG8XuYJRlxv205h2Om-45" style="edgeStyle=orthogonalEdgeStyle;rounded=0;orthogonalLoop=1;jettySize=auto;html=1;entryX=0;entryY=0.5;entryDx=0;entryDy=0;" edge="1" parent="1" target="AcmG8XuYJRlxv205h2Om-48">
          <mxGeometry relative="1" as="geometry">
            <mxPoint x="40" y="180" as="sourcePoint" />
            <Array as="points">
              <mxPoint x="20" y="180" />
              <mxPoint x="20" y="500" />
            </Array>
          </mxGeometry>
        </mxCell>
        <mxCell id="AcmG8XuYJRlxv205h2Om-46" style="edgeStyle=orthogonalEdgeStyle;rounded=0;orthogonalLoop=1;jettySize=auto;html=1;entryX=0;entryY=0.5;entryDx=0;entryDy=0;" edge="1" parent="1" target="AcmG8XuYJRlxv205h2Om-47">
          <mxGeometry relative="1" as="geometry">
            <mxPoint x="20" y="619.9999999999998" as="targetPoint" />
            <mxPoint x="40" y="180" as="sourcePoint" />
            <Array as="points">
              <mxPoint x="20" y="180" />
              <mxPoint x="20" y="420" />
            </Array>
          </mxGeometry>
        </mxCell>
        <mxCell id="AcmG8XuYJRlxv205h2Om-47" value="Xóa sản phẩm" style="rounded=0;whiteSpace=wrap;html=1;" vertex="1" parent="1">
          <mxGeometry x="40" y="400" width="80" height="40" as="geometry" />
        </mxCell>
        <mxCell id="AcmG8XuYJRlxv205h2Om-48" value="Xem DS sản phẩm" style="rounded=0;whiteSpace=wrap;html=1;" vertex="1" parent="1">
          <mxGeometry x="40" y="480" width="80" height="40" as="geometry" />
        </mxCell>
        <mxCell id="AcmG8XuYJRlxv205h2Om-49" value="Xem đơn hàng" style="rounded=0;whiteSpace=wrap;html=1;" vertex="1" parent="1">
          <mxGeometry x="160" y="240" width="80" height="40" as="geometry" />
        </mxCell>
        <mxCell id="AcmG8XuYJRlxv205h2Om-50" value="Cập nhật đơn hàng" style="rounded=0;whiteSpace=wrap;html=1;" vertex="1" parent="1">
          <mxGeometry x="160" y="320" width="80" height="40" as="geometry" />
        </mxCell>
        <mxCell id="AcmG8XuYJRlxv205h2Om-51" value="Hủy đơn hàng" style="rounded=0;whiteSpace=wrap;html=1;" vertex="1" parent="1">
          <mxGeometry x="160" y="400" width="80" height="40" as="geometry" />
        </mxCell>
        <mxCell id="AcmG8XuYJRlxv205h2Om-52" value="Xem chi tiết đơn hàng" style="rounded=0;whiteSpace=wrap;html=1;" vertex="1" parent="1">
          <mxGeometry x="160" y="480" width="80" height="40" as="geometry" />
        </mxCell>
        <mxCell id="AcmG8XuYJRlxv205h2Om-53" value="Đăng kí" style="rounded=0;whiteSpace=wrap;html=1;" vertex="1" parent="1">
          <mxGeometry x="280" y="240" width="80" height="40" as="geometry" />
        </mxCell>
        <mxCell id="AcmG8XuYJRlxv205h2Om-54" value="Đăng nhập" style="rounded=0;whiteSpace=wrap;html=1;" vertex="1" parent="1">
          <mxGeometry x="280" y="320" width="80" height="40" as="geometry" />
        </mxCell>
        <mxCell id="AcmG8XuYJRlxv205h2Om-55" value="Quản lí tài khoản" style="rounded=0;whiteSpace=wrap;html=1;" vertex="1" parent="1">
          <mxGeometry x="280" y="400" width="80" height="40" as="geometry" />
        </mxCell>
        <mxCell id="AcmG8XuYJRlxv205h2Om-56" value="Đăng xuất" style="rounded=0;whiteSpace=wrap;html=1;" vertex="1" parent="1">
          <mxGeometry x="280" y="480" width="80" height="40" as="geometry" />
        </mxCell>
        <mxCell id="AcmG8XuYJRlxv205h2Om-57" value="Thêm SP vào giỏ hàng" style="rounded=0;whiteSpace=wrap;html=1;" vertex="1" parent="1">
          <mxGeometry x="400" y="240" width="80" height="40" as="geometry" />
        </mxCell>
        <mxCell id="AcmG8XuYJRlxv205h2Om-58" value="Xem giỏ hàng" style="rounded=0;whiteSpace=wrap;html=1;" vertex="1" parent="1">
          <mxGeometry x="400" y="320" width="80" height="40" as="geometry" />
        </mxCell>
        <mxCell id="AcmG8XuYJRlxv205h2Om-59" value="Xóa SP khỏi giỏ hàng" style="rounded=0;whiteSpace=wrap;html=1;" vertex="1" parent="1">
          <mxGeometry x="400" y="400" width="80" height="40" as="geometry" />
        </mxCell>
        <mxCell id="AcmG8XuYJRlxv205h2Om-60" value="Cập nhật số lượng SP" style="rounded=0;whiteSpace=wrap;html=1;" vertex="1" parent="1">
          <mxGeometry x="400" y="480" width="80" height="40" as="geometry" />
        </mxCell>
        <mxCell id="AcmG8XuYJRlxv205h2Om-61" value="Tích hợp Vnpay" style="rounded=0;whiteSpace=wrap;html=1;" vertex="1" parent="1">
          <mxGeometry x="520" y="240" width="80" height="40" as="geometry" />
        </mxCell>
        <mxCell id="AcmG8XuYJRlxv205h2Om-62" value="Thanh toán qua ví điện tử khác" style="rounded=0;whiteSpace=wrap;html=1;" vertex="1" parent="1">
          <mxGeometry x="520" y="320" width="80" height="40" as="geometry" />
        </mxCell>
        <mxCell id="AcmG8XuYJRlxv205h2Om-63" value="Xử lí thanh toán" style="rounded=0;whiteSpace=wrap;html=1;" vertex="1" parent="1">
          <mxGeometry x="640" y="240" width="80" height="40" as="geometry" />
        </mxCell>
        <mxCell id="AcmG8XuYJRlxv205h2Om-64" value="Xác nhận giao dịch" style="rounded=0;whiteSpace=wrap;html=1;" vertex="1" parent="1">
          <mxGeometry x="640" y="320" width="80" height="40" as="geometry" />
        </mxCell>
        <mxCell id="AcmG8XuYJRlxv205h2Om-65" value="Hoàn tất thanh toán" style="rounded=0;whiteSpace=wrap;html=1;" vertex="1" parent="1">
          <mxGeometry x="640" y="400" width="80" height="40" as="geometry" />
        </mxCell>
        <mxCell id="AcmG8XuYJRlxv205h2Om-66" value="Quản lí danh mục(SP, Blog)" style="rounded=0;whiteSpace=wrap;html=1;" vertex="1" parent="1">
          <mxGeometry x="880" y="240" width="80" height="40" as="geometry" />
        </mxCell>
        <mxCell id="AcmG8XuYJRlxv205h2Om-67" value="Quản lí blog, comment, tag" style="rounded=0;whiteSpace=wrap;html=1;" vertex="1" parent="1">
          <mxGeometry x="880" y="320" width="80" height="40" as="geometry" />
        </mxCell>
        <mxCell id="AcmG8XuYJRlxv205h2Om-68" value="Quản lí chức năng" style="rounded=0;whiteSpace=wrap;html=1;" vertex="1" parent="1">
          <mxGeometry x="880" y="400" width="80" height="40" as="geometry" />
        </mxCell>
        <mxCell id="AcmG8XuYJRlxv205h2Om-69" value="Quản lí banner, brand" style="rounded=0;whiteSpace=wrap;html=1;" vertex="1" parent="1">
          <mxGeometry x="880" y="480" width="80" height="40" as="geometry" />
        </mxCell>
        <mxCell id="AcmG8XuYJRlxv205h2Om-70" value="Quản lí group, phân quyền" style="rounded=0;whiteSpace=wrap;html=1;" vertex="1" parent="1">
          <mxGeometry x="880" y="560" width="80" height="40" as="geometry" />
        </mxCell>
        <mxCell id="AcmG8XuYJRlxv205h2Om-71" value="Quản lí giá, nhập hàng" style="rounded=0;whiteSpace=wrap;html=1;" vertex="1" parent="1">
          <mxGeometry x="880" y="640" width="80" height="40" as="geometry" />
        </mxCell>
        <mxCell id="AcmG8XuYJRlxv205h2Om-72" style="edgeStyle=orthogonalEdgeStyle;rounded=0;orthogonalLoop=1;jettySize=auto;html=1;exitX=0.5;exitY=1;exitDx=0;exitDy=0;entryX=0.5;entryY=0;entryDx=0;entryDy=0;" edge="1" parent="1" source="AcmG8XuYJRlxv205h2Om-2" target="AcmG8XuYJRlxv205h2Om-76">
          <mxGeometry relative="1" as="geometry">
            <mxPoint x="760" y="70" as="targetPoint" />
          </mxGeometry>
        </mxCell>
        <mxCell id="AcmG8XuYJRlxv205h2Om-73" style="edgeStyle=orthogonalEdgeStyle;rounded=0;orthogonalLoop=1;jettySize=auto;html=1;exitX=0;exitY=0.5;exitDx=0;exitDy=0;entryX=0;entryY=0.5;entryDx=0;entryDy=0;" edge="1" parent="1" source="AcmG8XuYJRlxv205h2Om-76" target="AcmG8XuYJRlxv205h2Om-77">
          <mxGeometry relative="1" as="geometry" />
        </mxCell>
        <mxCell id="AcmG8XuYJRlxv205h2Om-74" style="edgeStyle=orthogonalEdgeStyle;rounded=0;orthogonalLoop=1;jettySize=auto;html=1;exitX=0;exitY=0.5;exitDx=0;exitDy=0;entryX=0;entryY=0.5;entryDx=0;entryDy=0;" edge="1" parent="1" source="AcmG8XuYJRlxv205h2Om-76" target="AcmG8XuYJRlxv205h2Om-78">
          <mxGeometry relative="1" as="geometry" />
        </mxCell>
        <mxCell id="AcmG8XuYJRlxv205h2Om-75" style="edgeStyle=orthogonalEdgeStyle;rounded=0;orthogonalLoop=1;jettySize=auto;html=1;exitX=0;exitY=0.5;exitDx=0;exitDy=0;entryX=0;entryY=0.5;entryDx=0;entryDy=0;" edge="1" parent="1" source="AcmG8XuYJRlxv205h2Om-76" target="AcmG8XuYJRlxv205h2Om-79">
          <mxGeometry relative="1" as="geometry" />
        </mxCell>
        <mxCell id="AcmG8XuYJRlxv205h2Om-76" value="Báo cáo thống kê" style="rounded=0;whiteSpace=wrap;html=1;" vertex="1" parent="1">
          <mxGeometry x="760" y="160" width="80" height="40" as="geometry" />
        </mxCell>
        <mxCell id="AcmG8XuYJRlxv205h2Om-77" value="Thống kê doanh thu" style="rounded=0;whiteSpace=wrap;html=1;" vertex="1" parent="1">
          <mxGeometry x="760" y="240" width="80" height="40" as="geometry" />
        </mxCell>
        <mxCell id="AcmG8XuYJRlxv205h2Om-78" value="Thống kê đơn hàng" style="rounded=0;whiteSpace=wrap;html=1;" vertex="1" parent="1">
          <mxGeometry x="760" y="320" width="80" height="40" as="geometry" />
        </mxCell>
        <mxCell id="AcmG8XuYJRlxv205h2Om-79" value="Xuất báo cáo" style="rounded=0;whiteSpace=wrap;html=1;" vertex="1" parent="1">
          <mxGeometry x="760" y="400" width="80" height="40" as="geometry" />
        </mxCell>
        <mxCell id="AcmG8XuYJRlxv205h2Om-80" value="Quản lí quỹ, công nợ" style="rounded=0;whiteSpace=wrap;html=1;" vertex="1" parent="1">
          <mxGeometry x="880" y="720" width="80" height="40" as="geometry" />
        </mxCell>
      </root>
    </mxGraphModel>
  </diagram>
  <diagram id="vHj7JL7WNXKv2GER_cby" name="QT_Nhập kho">
    <mxGraphModel dx="1518" dy="655" grid="1" gridSize="10" guides="1" tooltips="1" connect="1" arrows="1" fold="1" page="1" pageScale="1" pageWidth="850" pageHeight="1100" math="0" shadow="0">
      <root>
        <mxCell id="0" />
        <mxCell id="1" parent="0" />
        <mxCell id="dFAbITbIkelPZ7Iz_s7s-1" value="" style="shape=process;whiteSpace=wrap;html=1;backgroundOutline=1;size=0.23684210526315788;" vertex="1" parent="1">
          <mxGeometry x="30" y="40" width="770" height="610" as="geometry" />
        </mxCell>
        <mxCell id="dFAbITbIkelPZ7Iz_s7s-2" value="Người yêu cầu" style="text;html=1;align=center;verticalAlign=middle;whiteSpace=wrap;rounded=0;fontStyle=1" vertex="1" parent="1">
          <mxGeometry x="65" y="50" width="90" height="30" as="geometry" />
        </mxCell>
        <mxCell id="dFAbITbIkelPZ7Iz_s7s-3" value="Hệ thống" style="text;html=1;align=center;verticalAlign=middle;whiteSpace=wrap;rounded=0;fontStyle=1" vertex="1" parent="1">
          <mxGeometry x="380" y="50" width="90" height="30" as="geometry" />
        </mxCell>
        <mxCell id="dFAbITbIkelPZ7Iz_s7s-4" value="Thủ kho" style="text;html=1;align=center;verticalAlign=middle;whiteSpace=wrap;rounded=0;fontStyle=1" vertex="1" parent="1">
          <mxGeometry x="652.5" y="50" width="90" height="30" as="geometry" />
        </mxCell>
        <mxCell id="dFAbITbIkelPZ7Iz_s7s-42" style="edgeStyle=orthogonalEdgeStyle;rounded=0;orthogonalLoop=1;jettySize=auto;html=1;exitX=1;exitY=0.5;exitDx=0;exitDy=0;entryX=0;entryY=0.5;entryDx=0;entryDy=0;" edge="1" parent="1" source="dFAbITbIkelPZ7Iz_s7s-6" target="dFAbITbIkelPZ7Iz_s7s-10">
          <mxGeometry relative="1" as="geometry" />
        </mxCell>
        <mxCell id="dFAbITbIkelPZ7Iz_s7s-6" value="Yêu cầu nhập kho" style="rounded=1;whiteSpace=wrap;html=1;" vertex="1" parent="1">
          <mxGeometry x="40" y="110" width="140" height="30" as="geometry" />
        </mxCell>
        <mxCell id="dFAbITbIkelPZ7Iz_s7s-9" style="edgeStyle=orthogonalEdgeStyle;rounded=0;orthogonalLoop=1;jettySize=auto;html=1;exitX=0.5;exitY=1;exitDx=0;exitDy=0;" edge="1" parent="1">
          <mxGeometry relative="1" as="geometry">
            <mxPoint x="310" y="240" as="sourcePoint" />
            <mxPoint x="310" y="240" as="targetPoint" />
          </mxGeometry>
        </mxCell>
        <mxCell id="dFAbITbIkelPZ7Iz_s7s-43" style="edgeStyle=orthogonalEdgeStyle;rounded=0;orthogonalLoop=1;jettySize=auto;html=1;exitX=1;exitY=0.5;exitDx=0;exitDy=0;entryX=0;entryY=0.5;entryDx=0;entryDy=0;" edge="1" parent="1" source="dFAbITbIkelPZ7Iz_s7s-10" target="dFAbITbIkelPZ7Iz_s7s-30">
          <mxGeometry relative="1" as="geometry" />
        </mxCell>
        <mxCell id="dFAbITbIkelPZ7Iz_s7s-10" value="Kiểm tra hàng hóa" style="rounded=1;whiteSpace=wrap;html=1;" vertex="1" parent="1">
          <mxGeometry x="240" y="110" width="120" height="30" as="geometry" />
        </mxCell>
        <mxCell id="dFAbITbIkelPZ7Iz_s7s-12" value="Kiểm tra danh mục" style="rounded=1;whiteSpace=wrap;html=1;" vertex="1" parent="1">
          <mxGeometry x="365" y="180" width="120" height="30" as="geometry" />
        </mxCell>
        <mxCell id="dFAbITbIkelPZ7Iz_s7s-49" style="edgeStyle=orthogonalEdgeStyle;rounded=0;orthogonalLoop=1;jettySize=auto;html=1;exitX=0.5;exitY=1;exitDx=0;exitDy=0;entryX=0.5;entryY=0;entryDx=0;entryDy=0;" edge="1" parent="1" source="dFAbITbIkelPZ7Iz_s7s-16" target="dFAbITbIkelPZ7Iz_s7s-41">
          <mxGeometry relative="1" as="geometry" />
        </mxCell>
        <mxCell id="dFAbITbIkelPZ7Iz_s7s-16" value="Kiểm tra kho nhập" style="rounded=1;whiteSpace=wrap;html=1;" vertex="1" parent="1">
          <mxGeometry x="240" y="240" width="120" height="30" as="geometry" />
        </mxCell>
        <mxCell id="dFAbITbIkelPZ7Iz_s7s-56" style="edgeStyle=orthogonalEdgeStyle;rounded=0;orthogonalLoop=1;jettySize=auto;html=1;exitX=0.5;exitY=1;exitDx=0;exitDy=0;entryX=0.5;entryY=0;entryDx=0;entryDy=0;" edge="1" parent="1" source="dFAbITbIkelPZ7Iz_s7s-17" target="dFAbITbIkelPZ7Iz_s7s-54">
          <mxGeometry relative="1" as="geometry" />
        </mxCell>
        <mxCell id="dFAbITbIkelPZ7Iz_s7s-17" value="Kiểm tra nhà phân phối" style="rounded=1;whiteSpace=wrap;html=1;" vertex="1" parent="1">
          <mxGeometry x="370" y="300" width="120" height="30" as="geometry" />
        </mxCell>
        <mxCell id="dFAbITbIkelPZ7Iz_s7s-70" style="edgeStyle=orthogonalEdgeStyle;rounded=0;orthogonalLoop=1;jettySize=auto;html=1;exitX=0.5;exitY=1;exitDx=0;exitDy=0;entryX=0.5;entryY=0;entryDx=0;entryDy=0;" edge="1" parent="1" source="dFAbITbIkelPZ7Iz_s7s-18" target="dFAbITbIkelPZ7Iz_s7s-19">
          <mxGeometry relative="1" as="geometry" />
        </mxCell>
        <mxCell id="dFAbITbIkelPZ7Iz_s7s-18" value="Thêm thông tin kho nhập hàng" style="rounded=1;whiteSpace=wrap;html=1;" vertex="1" parent="1">
          <mxGeometry x="637.5" y="105" width="120" height="30" as="geometry" />
        </mxCell>
        <mxCell id="dFAbITbIkelPZ7Iz_s7s-71" style="edgeStyle=orthogonalEdgeStyle;rounded=0;orthogonalLoop=1;jettySize=auto;html=1;exitX=0.5;exitY=1;exitDx=0;exitDy=0;entryX=0.5;entryY=0;entryDx=0;entryDy=0;" edge="1" parent="1" source="dFAbITbIkelPZ7Iz_s7s-19" target="dFAbITbIkelPZ7Iz_s7s-20">
          <mxGeometry relative="1" as="geometry" />
        </mxCell>
        <mxCell id="dFAbITbIkelPZ7Iz_s7s-19" value="Thêm danh sách sản phẩm" style="rounded=1;whiteSpace=wrap;html=1;" vertex="1" parent="1">
          <mxGeometry x="640" y="170" width="120" height="30" as="geometry" />
        </mxCell>
        <mxCell id="dFAbITbIkelPZ7Iz_s7s-72" style="edgeStyle=orthogonalEdgeStyle;rounded=0;orthogonalLoop=1;jettySize=auto;html=1;exitX=0.5;exitY=1;exitDx=0;exitDy=0;" edge="1" parent="1" source="dFAbITbIkelPZ7Iz_s7s-20" target="dFAbITbIkelPZ7Iz_s7s-21">
          <mxGeometry relative="1" as="geometry" />
        </mxCell>
        <mxCell id="dFAbITbIkelPZ7Iz_s7s-20" value="Thêm thông tin người lập phiếu" style="rounded=1;whiteSpace=wrap;html=1;" vertex="1" parent="1">
          <mxGeometry x="640" y="240" width="120" height="30" as="geometry" />
        </mxCell>
        <mxCell id="dFAbITbIkelPZ7Iz_s7s-73" style="edgeStyle=orthogonalEdgeStyle;rounded=0;orthogonalLoop=1;jettySize=auto;html=1;exitX=0.5;exitY=1;exitDx=0;exitDy=0;entryX=0.5;entryY=0;entryDx=0;entryDy=0;" edge="1" parent="1" source="dFAbITbIkelPZ7Iz_s7s-21" target="dFAbITbIkelPZ7Iz_s7s-22">
          <mxGeometry relative="1" as="geometry" />
        </mxCell>
        <mxCell id="dFAbITbIkelPZ7Iz_s7s-21" value="Nhập phí vận chuyển, tiền giảm, số tiền thanh toán" style="rounded=1;whiteSpace=wrap;html=1;" vertex="1" parent="1">
          <mxGeometry x="626.25" y="355" width="147.5" height="60" as="geometry" />
        </mxCell>
        <mxCell id="dFAbITbIkelPZ7Iz_s7s-74" style="edgeStyle=orthogonalEdgeStyle;rounded=0;orthogonalLoop=1;jettySize=auto;html=1;exitX=0;exitY=0.5;exitDx=0;exitDy=0;entryX=1;entryY=0.5;entryDx=0;entryDy=0;" edge="1" parent="1" source="dFAbITbIkelPZ7Iz_s7s-22" target="dFAbITbIkelPZ7Iz_s7s-24">
          <mxGeometry relative="1" as="geometry" />
        </mxCell>
        <mxCell id="dFAbITbIkelPZ7Iz_s7s-22" value="Tạo phiếu nhập kho" style="rounded=1;whiteSpace=wrap;html=1;" vertex="1" parent="1">
          <mxGeometry x="640" y="470" width="120" height="30" as="geometry" />
        </mxCell>
        <mxCell id="dFAbITbIkelPZ7Iz_s7s-75" style="edgeStyle=orthogonalEdgeStyle;rounded=0;orthogonalLoop=1;jettySize=auto;html=1;exitX=0.5;exitY=1;exitDx=0;exitDy=0;entryX=0;entryY=0.5;entryDx=0;entryDy=0;" edge="1" parent="1" source="dFAbITbIkelPZ7Iz_s7s-24" target="dFAbITbIkelPZ7Iz_s7s-25">
          <mxGeometry relative="1" as="geometry" />
        </mxCell>
        <mxCell id="dFAbITbIkelPZ7Iz_s7s-24" value="Nhận phiếu và xác nhận nhập kho" style="rounded=1;whiteSpace=wrap;html=1;" vertex="1" parent="1">
          <mxGeometry x="60" y="470" width="120" height="30" as="geometry" />
        </mxCell>
        <mxCell id="dFAbITbIkelPZ7Iz_s7s-76" style="edgeStyle=orthogonalEdgeStyle;rounded=0;orthogonalLoop=1;jettySize=auto;html=1;exitX=0.5;exitY=1;exitDx=0;exitDy=0;entryX=0.5;entryY=0;entryDx=0;entryDy=0;" edge="1" parent="1" source="dFAbITbIkelPZ7Iz_s7s-25" target="dFAbITbIkelPZ7Iz_s7s-27">
          <mxGeometry relative="1" as="geometry" />
        </mxCell>
        <mxCell id="dFAbITbIkelPZ7Iz_s7s-25" value="Cập nhật tồn kho cho từng sản phẩm" style="rounded=1;whiteSpace=wrap;html=1;" vertex="1" parent="1">
          <mxGeometry x="365" y="540" width="120" height="30" as="geometry" />
        </mxCell>
        <mxCell id="dFAbITbIkelPZ7Iz_s7s-77" style="edgeStyle=orthogonalEdgeStyle;rounded=0;orthogonalLoop=1;jettySize=auto;html=1;exitX=1;exitY=0.5;exitDx=0;exitDy=0;" edge="1" parent="1" source="dFAbITbIkelPZ7Iz_s7s-27" target="dFAbITbIkelPZ7Iz_s7s-28">
          <mxGeometry relative="1" as="geometry" />
        </mxCell>
        <mxCell id="dFAbITbIkelPZ7Iz_s7s-27" value="Cập nhật công nợ" style="rounded=1;whiteSpace=wrap;html=1;" vertex="1" parent="1">
          <mxGeometry x="365" y="600" width="120" height="30" as="geometry" />
        </mxCell>
        <mxCell id="dFAbITbIkelPZ7Iz_s7s-28" value="In phiếu nhập hàng" style="rounded=1;whiteSpace=wrap;html=1;" vertex="1" parent="1">
          <mxGeometry x="653.75" y="600" width="120" height="30" as="geometry" />
        </mxCell>
        <mxCell id="dFAbITbIkelPZ7Iz_s7s-44" style="edgeStyle=orthogonalEdgeStyle;rounded=0;orthogonalLoop=1;jettySize=auto;html=1;exitX=1;exitY=0.5;exitDx=0;exitDy=0;entryX=0;entryY=0.5;entryDx=0;entryDy=0;" edge="1" parent="1" source="dFAbITbIkelPZ7Iz_s7s-30" target="dFAbITbIkelPZ7Iz_s7s-33">
          <mxGeometry relative="1" as="geometry" />
        </mxCell>
        <mxCell id="dFAbITbIkelPZ7Iz_s7s-62" value="no" style="edgeLabel;html=1;align=center;verticalAlign=middle;resizable=0;points=[];" vertex="1" connectable="0" parent="dFAbITbIkelPZ7Iz_s7s-44">
          <mxGeometry x="-0.3169" y="-3" relative="1" as="geometry">
            <mxPoint as="offset" />
          </mxGeometry>
        </mxCell>
        <mxCell id="dFAbITbIkelPZ7Iz_s7s-45" style="edgeStyle=orthogonalEdgeStyle;rounded=0;orthogonalLoop=1;jettySize=auto;html=1;exitX=0.5;exitY=1;exitDx=0;exitDy=0;entryX=0.5;entryY=0;entryDx=0;entryDy=0;" edge="1" parent="1" source="dFAbITbIkelPZ7Iz_s7s-30" target="dFAbITbIkelPZ7Iz_s7s-12">
          <mxGeometry relative="1" as="geometry" />
        </mxCell>
        <mxCell id="dFAbITbIkelPZ7Iz_s7s-61" value="yes" style="edgeLabel;html=1;align=center;verticalAlign=middle;resizable=0;points=[];" vertex="1" connectable="0" parent="dFAbITbIkelPZ7Iz_s7s-45">
          <mxGeometry x="-0.2396" y="-1" relative="1" as="geometry">
            <mxPoint as="offset" />
          </mxGeometry>
        </mxCell>
        <mxCell id="dFAbITbIkelPZ7Iz_s7s-30" value="" style="rhombus;whiteSpace=wrap;html=1;" vertex="1" parent="1">
          <mxGeometry x="400" y="105" width="50" height="40" as="geometry" />
        </mxCell>
        <mxCell id="dFAbITbIkelPZ7Iz_s7s-31" style="edgeStyle=orthogonalEdgeStyle;rounded=0;orthogonalLoop=1;jettySize=auto;html=1;exitX=0.5;exitY=1;exitDx=0;exitDy=0;" edge="1" parent="1" source="dFAbITbIkelPZ7Iz_s7s-10" target="dFAbITbIkelPZ7Iz_s7s-10">
          <mxGeometry relative="1" as="geometry" />
        </mxCell>
        <mxCell id="dFAbITbIkelPZ7Iz_s7s-33" value="Thêm mới" style="rounded=1;whiteSpace=wrap;html=1;" vertex="1" parent="1">
          <mxGeometry x="500" y="110" width="70" height="30" as="geometry" />
        </mxCell>
        <mxCell id="dFAbITbIkelPZ7Iz_s7s-47" style="edgeStyle=orthogonalEdgeStyle;rounded=0;orthogonalLoop=1;jettySize=auto;html=1;exitX=1;exitY=0.5;exitDx=0;exitDy=0;" edge="1" parent="1" source="dFAbITbIkelPZ7Iz_s7s-37" target="dFAbITbIkelPZ7Iz_s7s-40">
          <mxGeometry relative="1" as="geometry" />
        </mxCell>
        <mxCell id="dFAbITbIkelPZ7Iz_s7s-64" value="no" style="edgeLabel;html=1;align=center;verticalAlign=middle;resizable=0;points=[];" vertex="1" connectable="0" parent="dFAbITbIkelPZ7Iz_s7s-47">
          <mxGeometry x="-0.3169" relative="1" as="geometry">
            <mxPoint as="offset" />
          </mxGeometry>
        </mxCell>
        <mxCell id="dFAbITbIkelPZ7Iz_s7s-48" style="edgeStyle=orthogonalEdgeStyle;rounded=0;orthogonalLoop=1;jettySize=auto;html=1;exitX=0;exitY=0.5;exitDx=0;exitDy=0;" edge="1" parent="1" source="dFAbITbIkelPZ7Iz_s7s-37" target="dFAbITbIkelPZ7Iz_s7s-16">
          <mxGeometry relative="1" as="geometry" />
        </mxCell>
        <mxCell id="dFAbITbIkelPZ7Iz_s7s-65" value="yes" style="edgeLabel;html=1;align=center;verticalAlign=middle;resizable=0;points=[];" vertex="1" connectable="0" parent="dFAbITbIkelPZ7Iz_s7s-48">
          <mxGeometry x="-0.1231" y="-1" relative="1" as="geometry">
            <mxPoint as="offset" />
          </mxGeometry>
        </mxCell>
        <mxCell id="dFAbITbIkelPZ7Iz_s7s-37" value="" style="rhombus;whiteSpace=wrap;html=1;" vertex="1" parent="1">
          <mxGeometry x="400" y="235" width="50" height="40" as="geometry" />
        </mxCell>
        <mxCell id="dFAbITbIkelPZ7Iz_s7s-40" value="Thêm mới" style="rounded=1;whiteSpace=wrap;html=1;" vertex="1" parent="1">
          <mxGeometry x="500" y="240" width="70" height="30" as="geometry" />
        </mxCell>
        <mxCell id="dFAbITbIkelPZ7Iz_s7s-51" style="edgeStyle=orthogonalEdgeStyle;rounded=0;orthogonalLoop=1;jettySize=auto;html=1;exitX=0.5;exitY=1;exitDx=0;exitDy=0;entryX=0.5;entryY=0;entryDx=0;entryDy=0;" edge="1" parent="1" source="dFAbITbIkelPZ7Iz_s7s-41" target="dFAbITbIkelPZ7Iz_s7s-50">
          <mxGeometry relative="1" as="geometry" />
        </mxCell>
        <mxCell id="dFAbITbIkelPZ7Iz_s7s-67" value="no" style="edgeLabel;html=1;align=center;verticalAlign=middle;resizable=0;points=[];" vertex="1" connectable="0" parent="dFAbITbIkelPZ7Iz_s7s-51">
          <mxGeometry x="-0.4277" y="-1" relative="1" as="geometry">
            <mxPoint as="offset" />
          </mxGeometry>
        </mxCell>
        <mxCell id="dFAbITbIkelPZ7Iz_s7s-52" style="edgeStyle=orthogonalEdgeStyle;rounded=0;orthogonalLoop=1;jettySize=auto;html=1;exitX=1;exitY=0.5;exitDx=0;exitDy=0;" edge="1" parent="1" source="dFAbITbIkelPZ7Iz_s7s-41" target="dFAbITbIkelPZ7Iz_s7s-17">
          <mxGeometry relative="1" as="geometry" />
        </mxCell>
        <mxCell id="dFAbITbIkelPZ7Iz_s7s-66" value="yes" style="edgeLabel;html=1;align=center;verticalAlign=middle;resizable=0;points=[];" vertex="1" connectable="0" parent="dFAbITbIkelPZ7Iz_s7s-52">
          <mxGeometry x="-0.3265" y="-2" relative="1" as="geometry">
            <mxPoint as="offset" />
          </mxGeometry>
        </mxCell>
        <mxCell id="dFAbITbIkelPZ7Iz_s7s-41" value="" style="rhombus;whiteSpace=wrap;html=1;" vertex="1" parent="1">
          <mxGeometry x="275" y="295" width="50" height="40" as="geometry" />
        </mxCell>
        <mxCell id="dFAbITbIkelPZ7Iz_s7s-46" style="edgeStyle=orthogonalEdgeStyle;rounded=0;orthogonalLoop=1;jettySize=auto;html=1;exitX=0.5;exitY=1;exitDx=0;exitDy=0;entryX=0.492;entryY=0.127;entryDx=0;entryDy=0;entryPerimeter=0;" edge="1" parent="1" source="dFAbITbIkelPZ7Iz_s7s-12" target="dFAbITbIkelPZ7Iz_s7s-37">
          <mxGeometry relative="1" as="geometry" />
        </mxCell>
        <mxCell id="dFAbITbIkelPZ7Iz_s7s-50" value="Thêm mới" style="rounded=1;whiteSpace=wrap;html=1;" vertex="1" parent="1">
          <mxGeometry x="265" y="360" width="70" height="30" as="geometry" />
        </mxCell>
        <mxCell id="dFAbITbIkelPZ7Iz_s7s-57" style="edgeStyle=orthogonalEdgeStyle;rounded=0;orthogonalLoop=1;jettySize=auto;html=1;exitX=0.5;exitY=1;exitDx=0;exitDy=0;entryX=0.5;entryY=0;entryDx=0;entryDy=0;" edge="1" parent="1" source="dFAbITbIkelPZ7Iz_s7s-54" target="dFAbITbIkelPZ7Iz_s7s-55">
          <mxGeometry relative="1" as="geometry" />
        </mxCell>
        <mxCell id="dFAbITbIkelPZ7Iz_s7s-68" value="no" style="edgeLabel;html=1;align=center;verticalAlign=middle;resizable=0;points=[];" vertex="1" connectable="0" parent="dFAbITbIkelPZ7Iz_s7s-57">
          <mxGeometry x="-0.6738" relative="1" as="geometry">
            <mxPoint as="offset" />
          </mxGeometry>
        </mxCell>
        <mxCell id="dFAbITbIkelPZ7Iz_s7s-59" style="edgeStyle=orthogonalEdgeStyle;rounded=0;orthogonalLoop=1;jettySize=auto;html=1;exitX=1;exitY=0.5;exitDx=0;exitDy=0;entryX=0;entryY=0.5;entryDx=0;entryDy=0;" edge="1" parent="1" source="dFAbITbIkelPZ7Iz_s7s-54" target="dFAbITbIkelPZ7Iz_s7s-18">
          <mxGeometry relative="1" as="geometry">
            <Array as="points">
              <mxPoint x="590" y="375" />
              <mxPoint x="590" y="120" />
            </Array>
          </mxGeometry>
        </mxCell>
        <mxCell id="dFAbITbIkelPZ7Iz_s7s-69" value="yes" style="edgeLabel;html=1;align=center;verticalAlign=middle;resizable=0;points=[];" vertex="1" connectable="0" parent="dFAbITbIkelPZ7Iz_s7s-59">
          <mxGeometry x="-0.6916" y="-1" relative="1" as="geometry">
            <mxPoint as="offset" />
          </mxGeometry>
        </mxCell>
        <mxCell id="dFAbITbIkelPZ7Iz_s7s-54" value="" style="rhombus;whiteSpace=wrap;html=1;" vertex="1" parent="1">
          <mxGeometry x="405" y="355" width="50" height="40" as="geometry" />
        </mxCell>
        <mxCell id="dFAbITbIkelPZ7Iz_s7s-55" value="Thêm mới" style="rounded=1;whiteSpace=wrap;html=1;" vertex="1" parent="1">
          <mxGeometry x="395" y="420" width="70" height="30" as="geometry" />
        </mxCell>
      </root>
    </mxGraphModel>
  </diagram>
  <diagram id="ovJAf8BA0XDiLbHVhQMP" name="QT_Mua bán">
    <mxGraphModel dx="1050" dy="557" grid="1" gridSize="10" guides="1" tooltips="1" connect="1" arrows="1" fold="1" page="1" pageScale="1" pageWidth="850" pageHeight="1100" math="0" shadow="0">
      <root>
        <mxCell id="0" />
        <mxCell id="1" parent="0" />
        <mxCell id="cEpcqpbT3i7uyB44Vict-1" value="Người dùng vào website" style="ellipse;whiteSpace=wrap;html=1;" vertex="1" parent="1">
          <mxGeometry x="40" y="40" width="120" height="80" as="geometry" />
        </mxCell>
        <mxCell id="cEpcqpbT3i7uyB44Vict-2" value="Duyệt sản phẩm" style="ellipse;whiteSpace=wrap;html=1;" vertex="1" parent="1">
          <mxGeometry x="40" y="160" width="120" height="80" as="geometry" />
        </mxCell>
        <mxCell id="cEpcqpbT3i7uyB44Vict-3" style="edgeStyle=orthogonalEdgeStyle;rounded=0;orthogonalLoop=1;jettySize=auto;html=1;exitX=1;exitY=0.5;exitDx=0;exitDy=0;entryX=0;entryY=0.5;entryDx=0;entryDy=0;" edge="1" parent="1" source="cEpcqpbT3i7uyB44Vict-4" target="cEpcqpbT3i7uyB44Vict-10">
          <mxGeometry relative="1" as="geometry" />
        </mxCell>
        <mxCell id="cEpcqpbT3i7uyB44Vict-4" value="Thêm vào giỏ hàng" style="ellipse;whiteSpace=wrap;html=1;" vertex="1" parent="1">
          <mxGeometry x="40" y="280" width="120" height="80" as="geometry" />
        </mxCell>
        <mxCell id="cEpcqpbT3i7uyB44Vict-5" style="edgeStyle=orthogonalEdgeStyle;rounded=0;orthogonalLoop=1;jettySize=auto;html=1;exitX=1;exitY=0.5;exitDx=0;exitDy=0;entryX=0;entryY=0.5;entryDx=0;entryDy=0;" edge="1" parent="1" source="cEpcqpbT3i7uyB44Vict-6" target="cEpcqpbT3i7uyB44Vict-12">
          <mxGeometry relative="1" as="geometry" />
        </mxCell>
        <mxCell id="cEpcqpbT3i7uyB44Vict-6" value="Thanh toán online/COD" style="ellipse;whiteSpace=wrap;html=1;" vertex="1" parent="1">
          <mxGeometry x="240" y="40" width="120" height="80" as="geometry" />
        </mxCell>
        <mxCell id="cEpcqpbT3i7uyB44Vict-7" style="edgeStyle=orthogonalEdgeStyle;rounded=0;orthogonalLoop=1;jettySize=auto;html=1;exitX=0.5;exitY=0;exitDx=0;exitDy=0;entryX=0.5;entryY=1;entryDx=0;entryDy=0;" edge="1" parent="1" source="cEpcqpbT3i7uyB44Vict-8" target="cEpcqpbT3i7uyB44Vict-6">
          <mxGeometry relative="1" as="geometry" />
        </mxCell>
        <mxCell id="cEpcqpbT3i7uyB44Vict-8" value="Chọn phương thức thanh toán" style="ellipse;whiteSpace=wrap;html=1;" vertex="1" parent="1">
          <mxGeometry x="240" y="160" width="120" height="80" as="geometry" />
        </mxCell>
        <mxCell id="cEpcqpbT3i7uyB44Vict-9" style="edgeStyle=orthogonalEdgeStyle;rounded=0;orthogonalLoop=1;jettySize=auto;html=1;exitX=0.5;exitY=0;exitDx=0;exitDy=0;entryX=0.5;entryY=1;entryDx=0;entryDy=0;" edge="1" parent="1" source="cEpcqpbT3i7uyB44Vict-10" target="cEpcqpbT3i7uyB44Vict-8">
          <mxGeometry relative="1" as="geometry" />
        </mxCell>
        <mxCell id="cEpcqpbT3i7uyB44Vict-10" value="Xem giỏ hàng" style="ellipse;whiteSpace=wrap;html=1;" vertex="1" parent="1">
          <mxGeometry x="240" y="280" width="120" height="80" as="geometry" />
        </mxCell>
        <mxCell id="cEpcqpbT3i7uyB44Vict-11" style="edgeStyle=orthogonalEdgeStyle;rounded=0;orthogonalLoop=1;jettySize=auto;html=1;exitX=0.5;exitY=1;exitDx=0;exitDy=0;entryX=0.5;entryY=0;entryDx=0;entryDy=0;" edge="1" parent="1" source="cEpcqpbT3i7uyB44Vict-12" target="cEpcqpbT3i7uyB44Vict-14">
          <mxGeometry relative="1" as="geometry" />
        </mxCell>
        <mxCell id="cEpcqpbT3i7uyB44Vict-12" value="Xác nhận đơn hàng" style="ellipse;whiteSpace=wrap;html=1;" vertex="1" parent="1">
          <mxGeometry x="440" y="40" width="120" height="80" as="geometry" />
        </mxCell>
        <mxCell id="cEpcqpbT3i7uyB44Vict-13" style="edgeStyle=orthogonalEdgeStyle;rounded=0;orthogonalLoop=1;jettySize=auto;html=1;exitX=0.5;exitY=1;exitDx=0;exitDy=0;entryX=0.5;entryY=0;entryDx=0;entryDy=0;" edge="1" parent="1" source="cEpcqpbT3i7uyB44Vict-14" target="cEpcqpbT3i7uyB44Vict-15">
          <mxGeometry relative="1" as="geometry" />
        </mxCell>
        <mxCell id="cEpcqpbT3i7uyB44Vict-14" value="Xử lý đơn hàng" style="ellipse;whiteSpace=wrap;html=1;" vertex="1" parent="1">
          <mxGeometry x="440" y="160" width="120" height="80" as="geometry" />
        </mxCell>
        <mxCell id="cEpcqpbT3i7uyB44Vict-15" value="Hoàn tất đơn hàng" style="ellipse;whiteSpace=wrap;html=1;" vertex="1" parent="1">
          <mxGeometry x="440" y="280" width="120" height="80" as="geometry" />
        </mxCell>
        <mxCell id="cEpcqpbT3i7uyB44Vict-16" value="" style="endArrow=classic;html=1;rounded=0;exitX=0.5;exitY=1;exitDx=0;exitDy=0;" edge="1" parent="1" source="cEpcqpbT3i7uyB44Vict-1" target="cEpcqpbT3i7uyB44Vict-2">
          <mxGeometry width="50" height="50" relative="1" as="geometry">
            <mxPoint x="240" y="310" as="sourcePoint" />
            <mxPoint x="290" y="260" as="targetPoint" />
          </mxGeometry>
        </mxCell>
        <mxCell id="cEpcqpbT3i7uyB44Vict-17" value="" style="endArrow=classic;html=1;rounded=0;exitX=0.5;exitY=1;exitDx=0;exitDy=0;" edge="1" parent="1" source="cEpcqpbT3i7uyB44Vict-2" target="cEpcqpbT3i7uyB44Vict-4">
          <mxGeometry width="50" height="50" relative="1" as="geometry">
            <mxPoint x="240" y="310" as="sourcePoint" />
            <mxPoint x="290" y="260" as="targetPoint" />
          </mxGeometry>
        </mxCell>
        <mxCell id="cEpcqpbT3i7uyB44Vict-18" value="Quy trình đặt hàng và thanh toán" style="text;html=1;align=center;verticalAlign=middle;whiteSpace=wrap;rounded=0;fontStyle=1" vertex="1" parent="1">
          <mxGeometry x="40" width="520" height="30" as="geometry" />
        </mxCell>
        <mxCell id="cEpcqpbT3i7uyB44Vict-19" value="Quy trình quản lý giỏ hàng" style="text;html=1;align=center;verticalAlign=middle;whiteSpace=wrap;rounded=0;fontStyle=1" vertex="1" parent="1">
          <mxGeometry x="40" y="400" width="720" height="30" as="geometry" />
        </mxCell>
        <mxCell id="cEpcqpbT3i7uyB44Vict-20" style="edgeStyle=orthogonalEdgeStyle;rounded=0;orthogonalLoop=1;jettySize=auto;html=1;exitX=1;exitY=0.5;exitDx=0;exitDy=0;entryX=0;entryY=0.5;entryDx=0;entryDy=0;" edge="1" parent="1" source="cEpcqpbT3i7uyB44Vict-21" target="cEpcqpbT3i7uyB44Vict-23">
          <mxGeometry relative="1" as="geometry" />
        </mxCell>
        <mxCell id="cEpcqpbT3i7uyB44Vict-21" value="Thêm vào giỏ hàng" style="ellipse;whiteSpace=wrap;html=1;" vertex="1" parent="1">
          <mxGeometry x="40" y="440" width="120" height="80" as="geometry" />
        </mxCell>
        <mxCell id="cEpcqpbT3i7uyB44Vict-22" style="edgeStyle=orthogonalEdgeStyle;rounded=0;orthogonalLoop=1;jettySize=auto;html=1;exitX=1;exitY=0.5;exitDx=0;exitDy=0;entryX=0;entryY=0.5;entryDx=0;entryDy=0;" edge="1" parent="1" source="cEpcqpbT3i7uyB44Vict-23" target="cEpcqpbT3i7uyB44Vict-25">
          <mxGeometry relative="1" as="geometry" />
        </mxCell>
        <mxCell id="cEpcqpbT3i7uyB44Vict-23" value="Cập nhật số lượng" style="ellipse;whiteSpace=wrap;html=1;" vertex="1" parent="1">
          <mxGeometry x="240" y="440" width="120" height="80" as="geometry" />
        </mxCell>
        <mxCell id="cEpcqpbT3i7uyB44Vict-24" style="edgeStyle=orthogonalEdgeStyle;rounded=0;orthogonalLoop=1;jettySize=auto;html=1;exitX=1;exitY=0.5;exitDx=0;exitDy=0;entryX=0;entryY=0.5;entryDx=0;entryDy=0;" edge="1" parent="1" source="cEpcqpbT3i7uyB44Vict-25" target="cEpcqpbT3i7uyB44Vict-26">
          <mxGeometry relative="1" as="geometry" />
        </mxCell>
        <mxCell id="cEpcqpbT3i7uyB44Vict-25" value="Xóa sản phẩm" style="ellipse;whiteSpace=wrap;html=1;" vertex="1" parent="1">
          <mxGeometry x="440" y="440" width="120" height="80" as="geometry" />
        </mxCell>
        <mxCell id="cEpcqpbT3i7uyB44Vict-26" value="Tiến hành thanh toán" style="ellipse;whiteSpace=wrap;html=1;" vertex="1" parent="1">
          <mxGeometry x="640" y="440" width="120" height="80" as="geometry" />
        </mxCell>
        <mxCell id="cEpcqpbT3i7uyB44Vict-27" value="Quy trình quản lý đơn hàng" style="text;html=1;align=center;verticalAlign=middle;whiteSpace=wrap;rounded=0;fontStyle=1" vertex="1" parent="1">
          <mxGeometry x="40" y="560" width="720" height="30" as="geometry" />
        </mxCell>
        <mxCell id="cEpcqpbT3i7uyB44Vict-28" style="edgeStyle=orthogonalEdgeStyle;rounded=0;orthogonalLoop=1;jettySize=auto;html=1;exitX=1;exitY=0.5;exitDx=0;exitDy=0;entryX=0;entryY=0.5;entryDx=0;entryDy=0;" edge="1" parent="1" source="cEpcqpbT3i7uyB44Vict-29" target="cEpcqpbT3i7uyB44Vict-31">
          <mxGeometry relative="1" as="geometry" />
        </mxCell>
        <mxCell id="cEpcqpbT3i7uyB44Vict-29" value="Người dùng kiểm tra đơn hàng" style="ellipse;whiteSpace=wrap;html=1;" vertex="1" parent="1">
          <mxGeometry x="40" y="600" width="120" height="80" as="geometry" />
        </mxCell>
        <mxCell id="cEpcqpbT3i7uyB44Vict-30" style="edgeStyle=orthogonalEdgeStyle;rounded=0;orthogonalLoop=1;jettySize=auto;html=1;exitX=1;exitY=0.5;exitDx=0;exitDy=0;entryX=0;entryY=0.5;entryDx=0;entryDy=0;" edge="1" parent="1" source="cEpcqpbT3i7uyB44Vict-31" target="cEpcqpbT3i7uyB44Vict-33">
          <mxGeometry relative="1" as="geometry" />
        </mxCell>
        <mxCell id="cEpcqpbT3i7uyB44Vict-31" value="Admin xác nhận đơn hàng" style="ellipse;whiteSpace=wrap;html=1;" vertex="1" parent="1">
          <mxGeometry x="240" y="600" width="120" height="80" as="geometry" />
        </mxCell>
        <mxCell id="cEpcqpbT3i7uyB44Vict-32" style="edgeStyle=orthogonalEdgeStyle;rounded=0;orthogonalLoop=1;jettySize=auto;html=1;exitX=1;exitY=0.5;exitDx=0;exitDy=0;entryX=0;entryY=0.5;entryDx=0;entryDy=0;" edge="1" parent="1" source="cEpcqpbT3i7uyB44Vict-33" target="cEpcqpbT3i7uyB44Vict-34">
          <mxGeometry relative="1" as="geometry" />
        </mxCell>
        <mxCell id="cEpcqpbT3i7uyB44Vict-33" value="Đơn hàng được giao" style="ellipse;whiteSpace=wrap;html=1;" vertex="1" parent="1">
          <mxGeometry x="440" y="600" width="120" height="80" as="geometry" />
        </mxCell>
        <mxCell id="cEpcqpbT3i7uyB44Vict-34" value="Hoàn tất đơn hàng" style="ellipse;whiteSpace=wrap;html=1;" vertex="1" parent="1">
          <mxGeometry x="640" y="600" width="120" height="80" as="geometry" />
        </mxCell>
        <mxCell id="cEpcqpbT3i7uyB44Vict-35" value="Quy trình thanh toán Online" style="text;html=1;align=center;verticalAlign=middle;whiteSpace=wrap;rounded=0;fontStyle=1" vertex="1" parent="1">
          <mxGeometry x="40" y="720" width="520" height="30" as="geometry" />
        </mxCell>
        <mxCell id="cEpcqpbT3i7uyB44Vict-36" style="edgeStyle=orthogonalEdgeStyle;rounded=0;orthogonalLoop=1;jettySize=auto;html=1;exitX=1;exitY=0.5;exitDx=0;exitDy=0;entryX=0;entryY=0.5;entryDx=0;entryDy=0;" edge="1" parent="1" source="cEpcqpbT3i7uyB44Vict-37" target="cEpcqpbT3i7uyB44Vict-39">
          <mxGeometry relative="1" as="geometry" />
        </mxCell>
        <mxCell id="cEpcqpbT3i7uyB44Vict-37" value="Người dùng chọn thanh toán" style="ellipse;whiteSpace=wrap;html=1;" vertex="1" parent="1">
          <mxGeometry x="40" y="760" width="120" height="80" as="geometry" />
        </mxCell>
        <mxCell id="cEpcqpbT3i7uyB44Vict-38" style="edgeStyle=orthogonalEdgeStyle;rounded=0;orthogonalLoop=1;jettySize=auto;html=1;exitX=1;exitY=0.5;exitDx=0;exitDy=0;entryX=0;entryY=0.5;entryDx=0;entryDy=0;" edge="1" parent="1" source="cEpcqpbT3i7uyB44Vict-39" target="cEpcqpbT3i7uyB44Vict-41">
          <mxGeometry relative="1" as="geometry" />
        </mxCell>
        <mxCell id="cEpcqpbT3i7uyB44Vict-39" value="Hệ thống kết nối cổng thanh toán" style="ellipse;whiteSpace=wrap;html=1;" vertex="1" parent="1">
          <mxGeometry x="240" y="760" width="120" height="80" as="geometry" />
        </mxCell>
        <mxCell id="cEpcqpbT3i7uyB44Vict-40" style="edgeStyle=orthogonalEdgeStyle;rounded=0;orthogonalLoop=1;jettySize=auto;html=1;exitX=0.5;exitY=1;exitDx=0;exitDy=0;entryX=0.5;entryY=0;entryDx=0;entryDy=0;" edge="1" parent="1" source="cEpcqpbT3i7uyB44Vict-41" target="cEpcqpbT3i7uyB44Vict-43">
          <mxGeometry relative="1" as="geometry" />
        </mxCell>
        <mxCell id="cEpcqpbT3i7uyB44Vict-41" value="Nhập thông tin thanh toán" style="ellipse;whiteSpace=wrap;html=1;" vertex="1" parent="1">
          <mxGeometry x="440" y="760" width="120" height="80" as="geometry" />
        </mxCell>
        <mxCell id="cEpcqpbT3i7uyB44Vict-42" style="edgeStyle=orthogonalEdgeStyle;rounded=0;orthogonalLoop=1;jettySize=auto;html=1;exitX=0;exitY=0.5;exitDx=0;exitDy=0;entryX=1;entryY=0.5;entryDx=0;entryDy=0;" edge="1" parent="1" source="cEpcqpbT3i7uyB44Vict-43" target="cEpcqpbT3i7uyB44Vict-45">
          <mxGeometry relative="1" as="geometry" />
        </mxCell>
        <mxCell id="cEpcqpbT3i7uyB44Vict-43" value="Hệ thống nhận phản hồi" style="ellipse;whiteSpace=wrap;html=1;" vertex="1" parent="1">
          <mxGeometry x="440" y="880" width="120" height="80" as="geometry" />
        </mxCell>
        <mxCell id="cEpcqpbT3i7uyB44Vict-44" style="edgeStyle=orthogonalEdgeStyle;rounded=0;orthogonalLoop=1;jettySize=auto;html=1;exitX=0;exitY=0.5;exitDx=0;exitDy=0;entryX=1;entryY=0.5;entryDx=0;entryDy=0;" edge="1" parent="1" source="cEpcqpbT3i7uyB44Vict-45" target="cEpcqpbT3i7uyB44Vict-46">
          <mxGeometry relative="1" as="geometry" />
        </mxCell>
        <mxCell id="cEpcqpbT3i7uyB44Vict-45" value="Thanh toán thành công/ thất bại" style="ellipse;whiteSpace=wrap;html=1;" vertex="1" parent="1">
          <mxGeometry x="240" y="880" width="120" height="80" as="geometry" />
        </mxCell>
        <mxCell id="cEpcqpbT3i7uyB44Vict-46" value="Xác nhận đơn hàng" style="ellipse;whiteSpace=wrap;html=1;" vertex="1" parent="1">
          <mxGeometry x="40" y="880" width="120" height="80" as="geometry" />
        </mxCell>
        <mxCell id="cEpcqpbT3i7uyB44Vict-47" value="Quy trình quản lý sản phẩm" style="text;html=1;align=center;verticalAlign=middle;whiteSpace=wrap;rounded=0;fontStyle=1" vertex="1" parent="1">
          <mxGeometry x="40" y="1200" width="720" height="30" as="geometry" />
        </mxCell>
        <mxCell id="cEpcqpbT3i7uyB44Vict-48" style="edgeStyle=orthogonalEdgeStyle;rounded=0;orthogonalLoop=1;jettySize=auto;html=1;exitX=1;exitY=0.5;exitDx=0;exitDy=0;entryX=0;entryY=0.5;entryDx=0;entryDy=0;" edge="1" parent="1" source="cEpcqpbT3i7uyB44Vict-49" target="cEpcqpbT3i7uyB44Vict-51">
          <mxGeometry relative="1" as="geometry" />
        </mxCell>
        <mxCell id="cEpcqpbT3i7uyB44Vict-49" value="Admin đăng nhập" style="ellipse;whiteSpace=wrap;html=1;" vertex="1" parent="1">
          <mxGeometry x="40" y="1240" width="120" height="80" as="geometry" />
        </mxCell>
        <mxCell id="cEpcqpbT3i7uyB44Vict-50" style="edgeStyle=orthogonalEdgeStyle;rounded=0;orthogonalLoop=1;jettySize=auto;html=1;exitX=1;exitY=0.5;exitDx=0;exitDy=0;entryX=0;entryY=0.5;entryDx=0;entryDy=0;" edge="1" parent="1" source="cEpcqpbT3i7uyB44Vict-51" target="cEpcqpbT3i7uyB44Vict-53">
          <mxGeometry relative="1" as="geometry" />
        </mxCell>
        <mxCell id="cEpcqpbT3i7uyB44Vict-51" value="Thêm/Sửa/Xóa sản phẩm" style="ellipse;whiteSpace=wrap;html=1;" vertex="1" parent="1">
          <mxGeometry x="240" y="1240" width="120" height="80" as="geometry" />
        </mxCell>
        <mxCell id="cEpcqpbT3i7uyB44Vict-52" style="edgeStyle=orthogonalEdgeStyle;rounded=0;orthogonalLoop=1;jettySize=auto;html=1;exitX=1;exitY=0.5;exitDx=0;exitDy=0;entryX=0;entryY=0.5;entryDx=0;entryDy=0;" edge="1" parent="1" source="cEpcqpbT3i7uyB44Vict-53" target="cEpcqpbT3i7uyB44Vict-54">
          <mxGeometry relative="1" as="geometry" />
        </mxCell>
        <mxCell id="cEpcqpbT3i7uyB44Vict-53" value="Cập nhật tồn kho" style="ellipse;whiteSpace=wrap;html=1;" vertex="1" parent="1">
          <mxGeometry x="440" y="1240" width="120" height="80" as="geometry" />
        </mxCell>
        <mxCell id="cEpcqpbT3i7uyB44Vict-54" value="Hiển thị sản phẩm" style="ellipse;whiteSpace=wrap;html=1;" vertex="1" parent="1">
          <mxGeometry x="640" y="1240" width="120" height="80" as="geometry" />
        </mxCell>
        <mxCell id="cEpcqpbT3i7uyB44Vict-55" value="Quy trình quản lý tài khoản người dùng" style="text;html=1;align=center;verticalAlign=middle;whiteSpace=wrap;rounded=0;fontStyle=1" vertex="1" parent="1">
          <mxGeometry x="40" y="1400" width="720" height="30" as="geometry" />
        </mxCell>
        <mxCell id="cEpcqpbT3i7uyB44Vict-56" style="edgeStyle=orthogonalEdgeStyle;rounded=0;orthogonalLoop=1;jettySize=auto;html=1;exitX=1;exitY=0.5;exitDx=0;exitDy=0;entryX=0;entryY=0.5;entryDx=0;entryDy=0;" edge="1" parent="1" source="cEpcqpbT3i7uyB44Vict-57" target="cEpcqpbT3i7uyB44Vict-59">
          <mxGeometry relative="1" as="geometry" />
        </mxCell>
        <mxCell id="cEpcqpbT3i7uyB44Vict-57" value="Đăng ký tài khoản" style="ellipse;whiteSpace=wrap;html=1;" vertex="1" parent="1">
          <mxGeometry x="40" y="1440" width="120" height="80" as="geometry" />
        </mxCell>
        <mxCell id="cEpcqpbT3i7uyB44Vict-58" style="edgeStyle=orthogonalEdgeStyle;rounded=0;orthogonalLoop=1;jettySize=auto;html=1;exitX=1;exitY=0.5;exitDx=0;exitDy=0;entryX=0;entryY=0.5;entryDx=0;entryDy=0;" edge="1" parent="1" source="cEpcqpbT3i7uyB44Vict-59" target="cEpcqpbT3i7uyB44Vict-61">
          <mxGeometry relative="1" as="geometry" />
        </mxCell>
        <mxCell id="cEpcqpbT3i7uyB44Vict-59" value="Đăng nhập" style="ellipse;whiteSpace=wrap;html=1;" vertex="1" parent="1">
          <mxGeometry x="240" y="1440" width="120" height="80" as="geometry" />
        </mxCell>
        <mxCell id="cEpcqpbT3i7uyB44Vict-60" style="edgeStyle=orthogonalEdgeStyle;rounded=0;orthogonalLoop=1;jettySize=auto;html=1;exitX=1;exitY=0.5;exitDx=0;exitDy=0;entryX=0;entryY=0.5;entryDx=0;entryDy=0;" edge="1" parent="1" source="cEpcqpbT3i7uyB44Vict-61" target="cEpcqpbT3i7uyB44Vict-62">
          <mxGeometry relative="1" as="geometry" />
        </mxCell>
        <mxCell id="cEpcqpbT3i7uyB44Vict-61" value="Cập nhật thông tin các nhân" style="ellipse;whiteSpace=wrap;html=1;" vertex="1" parent="1">
          <mxGeometry x="440" y="1440" width="120" height="80" as="geometry" />
        </mxCell>
        <mxCell id="cEpcqpbT3i7uyB44Vict-62" value="Đổi mật khẩu" style="ellipse;whiteSpace=wrap;html=1;" vertex="1" parent="1">
          <mxGeometry x="640" y="1440" width="120" height="80" as="geometry" />
        </mxCell>
        <mxCell id="cEpcqpbT3i7uyB44Vict-63" value="Quy trình quản lý danh sách yêu thích" style="text;html=1;align=center;verticalAlign=middle;whiteSpace=wrap;rounded=0;fontStyle=1" vertex="1" parent="1">
          <mxGeometry x="40" y="1560" width="520" height="30" as="geometry" />
        </mxCell>
        <mxCell id="cEpcqpbT3i7uyB44Vict-64" style="edgeStyle=orthogonalEdgeStyle;rounded=0;orthogonalLoop=1;jettySize=auto;html=1;exitX=1;exitY=0.5;exitDx=0;exitDy=0;entryX=0;entryY=0.5;entryDx=0;entryDy=0;" edge="1" parent="1" source="cEpcqpbT3i7uyB44Vict-65" target="cEpcqpbT3i7uyB44Vict-67">
          <mxGeometry relative="1" as="geometry" />
        </mxCell>
        <mxCell id="cEpcqpbT3i7uyB44Vict-65" value="Thêm vào danh sách yêu thích" style="ellipse;whiteSpace=wrap;html=1;" vertex="1" parent="1">
          <mxGeometry x="40" y="1600" width="120" height="80" as="geometry" />
        </mxCell>
        <mxCell id="cEpcqpbT3i7uyB44Vict-66" style="edgeStyle=orthogonalEdgeStyle;rounded=0;orthogonalLoop=1;jettySize=auto;html=1;exitX=1;exitY=0.5;exitDx=0;exitDy=0;entryX=0;entryY=0.5;entryDx=0;entryDy=0;" edge="1" parent="1" source="cEpcqpbT3i7uyB44Vict-67" target="cEpcqpbT3i7uyB44Vict-68">
          <mxGeometry relative="1" as="geometry" />
        </mxCell>
        <mxCell id="cEpcqpbT3i7uyB44Vict-67" value="Xóa khỏi danh sách" style="ellipse;whiteSpace=wrap;html=1;" vertex="1" parent="1">
          <mxGeometry x="240" y="1600" width="120" height="80" as="geometry" />
        </mxCell>
        <mxCell id="cEpcqpbT3i7uyB44Vict-68" value="Xem danh sách yêu thích" style="ellipse;whiteSpace=wrap;html=1;" vertex="1" parent="1">
          <mxGeometry x="440" y="1600" width="120" height="80" as="geometry" />
        </mxCell>
        <mxCell id="cEpcqpbT3i7uyB44Vict-69" value="Quàn lý phân quyền" style="ellipse;whiteSpace=wrap;html=1;" vertex="1" parent="1">
          <mxGeometry x="640" y="1800" width="120" height="80" as="geometry" />
        </mxCell>
        <mxCell id="cEpcqpbT3i7uyB44Vict-70" style="edgeStyle=orthogonalEdgeStyle;rounded=0;orthogonalLoop=1;jettySize=auto;html=1;exitX=1;exitY=0.5;exitDx=0;exitDy=0;entryX=0;entryY=0.5;entryDx=0;entryDy=0;" edge="1" parent="1" source="cEpcqpbT3i7uyB44Vict-71" target="cEpcqpbT3i7uyB44Vict-73">
          <mxGeometry relative="1" as="geometry" />
        </mxCell>
        <mxCell id="cEpcqpbT3i7uyB44Vict-71" value="Thêm/Sửa/Xóa tài khoản" style="ellipse;whiteSpace=wrap;html=1;" vertex="1" parent="1">
          <mxGeometry x="240" y="1800" width="120" height="80" as="geometry" />
        </mxCell>
        <mxCell id="cEpcqpbT3i7uyB44Vict-72" style="edgeStyle=orthogonalEdgeStyle;rounded=0;orthogonalLoop=1;jettySize=auto;html=1;exitX=1;exitY=0.5;exitDx=0;exitDy=0;entryX=0;entryY=0.5;entryDx=0;entryDy=0;" edge="1" parent="1" source="cEpcqpbT3i7uyB44Vict-73" target="cEpcqpbT3i7uyB44Vict-69">
          <mxGeometry relative="1" as="geometry" />
        </mxCell>
        <mxCell id="cEpcqpbT3i7uyB44Vict-73" value="Xem danh sách người dùng" style="ellipse;whiteSpace=wrap;html=1;" vertex="1" parent="1">
          <mxGeometry x="440" y="1800" width="120" height="80" as="geometry" />
        </mxCell>
        <mxCell id="cEpcqpbT3i7uyB44Vict-74" style="edgeStyle=orthogonalEdgeStyle;rounded=0;orthogonalLoop=1;jettySize=auto;html=1;exitX=1;exitY=0.5;exitDx=0;exitDy=0;entryX=0;entryY=0.5;entryDx=0;entryDy=0;" edge="1" parent="1" source="cEpcqpbT3i7uyB44Vict-75" target="cEpcqpbT3i7uyB44Vict-71">
          <mxGeometry relative="1" as="geometry" />
        </mxCell>
        <mxCell id="cEpcqpbT3i7uyB44Vict-75" value="Admin đăng nhập" style="ellipse;whiteSpace=wrap;html=1;" vertex="1" parent="1">
          <mxGeometry x="40" y="1800" width="120" height="80" as="geometry" />
        </mxCell>
        <mxCell id="cEpcqpbT3i7uyB44Vict-76" value="Quy trình quàn lý Admin" style="text;html=1;align=center;verticalAlign=middle;whiteSpace=wrap;rounded=0;fontStyle=1" vertex="1" parent="1">
          <mxGeometry x="40" y="1730" width="720" height="30" as="geometry" />
        </mxCell>
        <mxCell id="cEpcqpbT3i7uyB44Vict-77" value="Quy trình kết nối API" style="text;html=1;align=center;verticalAlign=middle;whiteSpace=wrap;rounded=0;fontStyle=1" vertex="1" parent="1">
          <mxGeometry x="80" y="1920" width="520" height="30" as="geometry" />
        </mxCell>
        <mxCell id="cEpcqpbT3i7uyB44Vict-78" style="edgeStyle=orthogonalEdgeStyle;rounded=0;orthogonalLoop=1;jettySize=auto;html=1;exitX=1;exitY=0.5;exitDx=0;exitDy=0;entryX=0;entryY=0.5;entryDx=0;entryDy=0;" edge="1" parent="1" source="cEpcqpbT3i7uyB44Vict-79" target="cEpcqpbT3i7uyB44Vict-81">
          <mxGeometry relative="1" as="geometry" />
        </mxCell>
        <mxCell id="cEpcqpbT3i7uyB44Vict-79" value="Gửi yêu cầu API" style="ellipse;whiteSpace=wrap;html=1;" vertex="1" parent="1">
          <mxGeometry x="80" y="1960" width="120" height="80" as="geometry" />
        </mxCell>
        <mxCell id="cEpcqpbT3i7uyB44Vict-80" style="edgeStyle=orthogonalEdgeStyle;rounded=0;orthogonalLoop=1;jettySize=auto;html=1;exitX=1;exitY=0.5;exitDx=0;exitDy=0;entryX=0;entryY=0.5;entryDx=0;entryDy=0;" edge="1" parent="1" source="cEpcqpbT3i7uyB44Vict-81" target="cEpcqpbT3i7uyB44Vict-82">
          <mxGeometry relative="1" as="geometry" />
        </mxCell>
        <mxCell id="cEpcqpbT3i7uyB44Vict-81" value="Nhận phản hồi API" style="ellipse;whiteSpace=wrap;html=1;" vertex="1" parent="1">
          <mxGeometry x="280" y="1960" width="120" height="80" as="geometry" />
        </mxCell>
        <mxCell id="cEpcqpbT3i7uyB44Vict-82" value="Xóa dữ liệu từ API" style="ellipse;whiteSpace=wrap;html=1;" vertex="1" parent="1">
          <mxGeometry x="480" y="1960" width="120" height="80" as="geometry" />
        </mxCell>
      </root>
    </mxGraphModel>
  </diagram>
</mxfile>
